<mxfile host="app.diagrams.net" modified="2023-11-26T13:29:21.051Z" agent="Mozilla/5.0 (Windows NT 10.0; Win64; x64) AppleWebKit/537.36 (KHTML, like Gecko) Chrome/119.0.0.0 Safari/537.36" etag="I827UCX0-zq04G4LfUOS" version="22.1.4" type="device" pages="2">
  <diagram id="Mu9D8H1FYRGQKsMRSWxn" name="BT1">
    <mxGraphModel dx="1050" dy="557" grid="1" gridSize="10" guides="1" tooltips="1" connect="1" arrows="1" fold="1" page="1" pageScale="1" pageWidth="827" pageHeight="1169" math="0" shadow="0">
      <root>
        <mxCell id="0" />
        <mxCell id="1" parent="0" />
        <mxCell id="hjcwdcIz2oXyQGafP6FZ-1" value="start" style="ellipse;whiteSpace=wrap;html=1;" parent="1" vertex="1">
          <mxGeometry x="320" y="460" width="120" height="80" as="geometry" />
        </mxCell>
        <mxCell id="hjcwdcIz2oXyQGafP6FZ-2" value="" style="edgeStyle=orthogonalEdgeStyle;rounded=0;orthogonalLoop=1;jettySize=auto;html=1;" parent="1" source="hjcwdcIz2oXyQGafP6FZ-3" target="hjcwdcIz2oXyQGafP6FZ-6" edge="1">
          <mxGeometry relative="1" as="geometry" />
        </mxCell>
        <mxCell id="hjcwdcIz2oXyQGafP6FZ-3" value="arr[100]&lt;br&gt;currentIndex" style="shape=parallelogram;perimeter=parallelogramPerimeter;whiteSpace=wrap;html=1;fixedSize=1;" parent="1" vertex="1">
          <mxGeometry x="280" y="580" width="170" height="75" as="geometry" />
        </mxCell>
        <mxCell id="hjcwdcIz2oXyQGafP6FZ-4" style="edgeStyle=orthogonalEdgeStyle;rounded=0;orthogonalLoop=1;jettySize=auto;html=1;entryX=0.583;entryY=-0.017;entryDx=0;entryDy=0;entryPerimeter=0;" parent="1" source="hjcwdcIz2oXyQGafP6FZ-1" target="hjcwdcIz2oXyQGafP6FZ-3" edge="1">
          <mxGeometry relative="1" as="geometry" />
        </mxCell>
        <mxCell id="hjcwdcIz2oXyQGafP6FZ-5" style="edgeStyle=orthogonalEdgeStyle;rounded=0;orthogonalLoop=1;jettySize=auto;html=1;entryX=0.5;entryY=0;entryDx=0;entryDy=0;" parent="1" source="hjcwdcIz2oXyQGafP6FZ-6" target="hjcwdcIz2oXyQGafP6FZ-8" edge="1">
          <mxGeometry relative="1" as="geometry" />
        </mxCell>
        <mxCell id="hjcwdcIz2oXyQGafP6FZ-6" value="sum=0,max,min,findNumber,count=0" style="shape=parallelogram;perimeter=parallelogramPerimeter;whiteSpace=wrap;html=1;fixedSize=1;" parent="1" vertex="1">
          <mxGeometry x="252.5" y="750" width="225" height="107.5" as="geometry" />
        </mxCell>
        <mxCell id="hjcwdcIz2oXyQGafP6FZ-7" style="edgeStyle=orthogonalEdgeStyle;rounded=0;orthogonalLoop=1;jettySize=auto;html=1;entryX=0.5;entryY=0;entryDx=0;entryDy=0;" parent="1" source="hjcwdcIz2oXyQGafP6FZ-8" target="hjcwdcIz2oXyQGafP6FZ-10" edge="1">
          <mxGeometry relative="1" as="geometry" />
        </mxCell>
        <mxCell id="hjcwdcIz2oXyQGafP6FZ-8" value="Hiển thị MENU" style="shape=parallelogram;perimeter=parallelogramPerimeter;whiteSpace=wrap;html=1;fixedSize=1;" parent="1" vertex="1">
          <mxGeometry x="240" y="1010" width="250" height="60" as="geometry" />
        </mxCell>
        <mxCell id="hjcwdcIz2oXyQGafP6FZ-9" style="edgeStyle=orthogonalEdgeStyle;rounded=0;orthogonalLoop=1;jettySize=auto;html=1;entryX=0.5;entryY=0;entryDx=0;entryDy=0;" parent="1" source="hjcwdcIz2oXyQGafP6FZ-10" target="hjcwdcIz2oXyQGafP6FZ-14" edge="1">
          <mxGeometry relative="1" as="geometry" />
        </mxCell>
        <mxCell id="hjcwdcIz2oXyQGafP6FZ-10" value="choice" style="shape=parallelogram;perimeter=parallelogramPerimeter;whiteSpace=wrap;html=1;fixedSize=1;" parent="1" vertex="1">
          <mxGeometry x="305" y="1220" width="120" height="60" as="geometry" />
        </mxCell>
        <mxCell id="hjcwdcIz2oXyQGafP6FZ-11" value="" style="edgeStyle=orthogonalEdgeStyle;rounded=0;orthogonalLoop=1;jettySize=auto;html=1;" parent="1" source="hjcwdcIz2oXyQGafP6FZ-14" target="hjcwdcIz2oXyQGafP6FZ-16" edge="1">
          <mxGeometry relative="1" as="geometry" />
        </mxCell>
        <mxCell id="hjcwdcIz2oXyQGafP6FZ-12" value="" style="edgeStyle=orthogonalEdgeStyle;rounded=0;orthogonalLoop=1;jettySize=auto;html=1;" parent="1" source="hjcwdcIz2oXyQGafP6FZ-14" target="hjcwdcIz2oXyQGafP6FZ-28" edge="1">
          <mxGeometry relative="1" as="geometry" />
        </mxCell>
        <mxCell id="hjcwdcIz2oXyQGafP6FZ-13" value="false" style="edgeLabel;html=1;align=center;verticalAlign=middle;resizable=0;points=[];" parent="hjcwdcIz2oXyQGafP6FZ-12" vertex="1" connectable="0">
          <mxGeometry x="0.1294" y="-2" relative="1" as="geometry">
            <mxPoint as="offset" />
          </mxGeometry>
        </mxCell>
        <mxCell id="hjcwdcIz2oXyQGafP6FZ-14" value="choice==1" style="rhombus;whiteSpace=wrap;html=1;" parent="1" vertex="1">
          <mxGeometry x="308.75" y="1420" width="112.5" height="110" as="geometry" />
        </mxCell>
        <mxCell id="hjcwdcIz2oXyQGafP6FZ-15" value="" style="edgeStyle=orthogonalEdgeStyle;rounded=0;orthogonalLoop=1;jettySize=auto;html=1;" parent="1" source="hjcwdcIz2oXyQGafP6FZ-16" target="hjcwdcIz2oXyQGafP6FZ-21" edge="1">
          <mxGeometry relative="1" as="geometry" />
        </mxCell>
        <mxCell id="hjcwdcIz2oXyQGafP6FZ-16" value="n,i=0" style="shape=parallelogram;perimeter=parallelogramPerimeter;whiteSpace=wrap;html=1;fixedSize=1;" parent="1" vertex="1">
          <mxGeometry x="497.5" y="1445" width="120" height="60" as="geometry" />
        </mxCell>
        <mxCell id="hjcwdcIz2oXyQGafP6FZ-17" value="" style="edgeStyle=orthogonalEdgeStyle;rounded=0;orthogonalLoop=1;jettySize=auto;html=1;" parent="1" source="hjcwdcIz2oXyQGafP6FZ-21" target="hjcwdcIz2oXyQGafP6FZ-23" edge="1">
          <mxGeometry relative="1" as="geometry" />
        </mxCell>
        <mxCell id="hjcwdcIz2oXyQGafP6FZ-18" value="true" style="edgeLabel;html=1;align=center;verticalAlign=middle;resizable=0;points=[];" parent="hjcwdcIz2oXyQGafP6FZ-17" vertex="1" connectable="0">
          <mxGeometry x="-0.1909" y="-3" relative="1" as="geometry">
            <mxPoint x="-1" as="offset" />
          </mxGeometry>
        </mxCell>
        <mxCell id="hjcwdcIz2oXyQGafP6FZ-19" style="edgeStyle=orthogonalEdgeStyle;rounded=0;orthogonalLoop=1;jettySize=auto;html=1;" parent="1" source="hjcwdcIz2oXyQGafP6FZ-21" edge="1">
          <mxGeometry relative="1" as="geometry">
            <mxPoint x="362.5" y="710" as="targetPoint" />
            <Array as="points">
              <mxPoint x="757" y="1600" />
              <mxPoint x="1390" y="1600" />
              <mxPoint x="1390" y="710" />
            </Array>
          </mxGeometry>
        </mxCell>
        <mxCell id="hjcwdcIz2oXyQGafP6FZ-20" value="false" style="edgeLabel;html=1;align=center;verticalAlign=middle;resizable=0;points=[];" parent="hjcwdcIz2oXyQGafP6FZ-19" vertex="1" connectable="0">
          <mxGeometry x="-0.7193" y="-2" relative="1" as="geometry">
            <mxPoint x="1" as="offset" />
          </mxGeometry>
        </mxCell>
        <mxCell id="hjcwdcIz2oXyQGafP6FZ-21" value="i&amp;lt;n" style="rhombus;whiteSpace=wrap;html=1;" parent="1" vertex="1">
          <mxGeometry x="717.5" y="1435" width="80" height="80" as="geometry" />
        </mxCell>
        <mxCell id="hjcwdcIz2oXyQGafP6FZ-22" value="" style="edgeStyle=orthogonalEdgeStyle;rounded=0;orthogonalLoop=1;jettySize=auto;html=1;" parent="1" source="hjcwdcIz2oXyQGafP6FZ-23" target="hjcwdcIz2oXyQGafP6FZ-25" edge="1">
          <mxGeometry relative="1" as="geometry" />
        </mxCell>
        <mxCell id="hjcwdcIz2oXyQGafP6FZ-23" value="arr[currentIndex]" style="shape=parallelogram;perimeter=parallelogramPerimeter;whiteSpace=wrap;html=1;fixedSize=1;" parent="1" vertex="1">
          <mxGeometry x="857.5" y="1445" width="152.5" height="65" as="geometry" />
        </mxCell>
        <mxCell id="hjcwdcIz2oXyQGafP6FZ-24" style="edgeStyle=orthogonalEdgeStyle;rounded=0;orthogonalLoop=1;jettySize=auto;html=1;" parent="1" source="hjcwdcIz2oXyQGafP6FZ-25" edge="1">
          <mxGeometry relative="1" as="geometry">
            <mxPoint x="660" y="1475" as="targetPoint" />
            <Array as="points">
              <mxPoint x="1118" y="1350" />
              <mxPoint x="660" y="1350" />
            </Array>
          </mxGeometry>
        </mxCell>
        <mxCell id="hjcwdcIz2oXyQGafP6FZ-25" value="i++&lt;br&gt;currentIndex++" style="whiteSpace=wrap;html=1;" parent="1" vertex="1">
          <mxGeometry x="1057.5" y="1445" width="120" height="60" as="geometry" />
        </mxCell>
        <mxCell id="hjcwdcIz2oXyQGafP6FZ-26" value="" style="edgeStyle=orthogonalEdgeStyle;rounded=0;orthogonalLoop=1;jettySize=auto;html=1;" parent="1" source="hjcwdcIz2oXyQGafP6FZ-28" target="hjcwdcIz2oXyQGafP6FZ-41" edge="1">
          <mxGeometry relative="1" as="geometry" />
        </mxCell>
        <mxCell id="hjcwdcIz2oXyQGafP6FZ-27" value="false" style="edgeLabel;html=1;align=center;verticalAlign=middle;resizable=0;points=[];" parent="hjcwdcIz2oXyQGafP6FZ-26" vertex="1" connectable="0">
          <mxGeometry x="-0.0435" y="4" relative="1" as="geometry">
            <mxPoint as="offset" />
          </mxGeometry>
        </mxCell>
        <mxCell id="hjcwdcIz2oXyQGafP6FZ-28" value="choice==2" style="rhombus;whiteSpace=wrap;html=1;" parent="1" vertex="1">
          <mxGeometry x="308.75" y="1700" width="112.5" height="110" as="geometry" />
        </mxCell>
        <mxCell id="hjcwdcIz2oXyQGafP6FZ-29" value="" style="edgeStyle=orthogonalEdgeStyle;rounded=0;orthogonalLoop=1;jettySize=auto;html=1;exitX=1;exitY=0.5;exitDx=0;exitDy=0;" parent="1" source="hjcwdcIz2oXyQGafP6FZ-28" target="hjcwdcIz2oXyQGafP6FZ-34" edge="1">
          <mxGeometry relative="1" as="geometry">
            <mxPoint x="630" y="1744.9099999999999" as="sourcePoint" />
          </mxGeometry>
        </mxCell>
        <mxCell id="hjcwdcIz2oXyQGafP6FZ-30" value="" style="edgeStyle=orthogonalEdgeStyle;rounded=0;orthogonalLoop=1;jettySize=auto;html=1;" parent="1" source="hjcwdcIz2oXyQGafP6FZ-34" target="hjcwdcIz2oXyQGafP6FZ-36" edge="1">
          <mxGeometry relative="1" as="geometry" />
        </mxCell>
        <mxCell id="hjcwdcIz2oXyQGafP6FZ-31" value="true" style="edgeLabel;html=1;align=center;verticalAlign=middle;resizable=0;points=[];" parent="hjcwdcIz2oXyQGafP6FZ-30" vertex="1" connectable="0">
          <mxGeometry x="-0.2948" y="-5" relative="1" as="geometry">
            <mxPoint x="-1" as="offset" />
          </mxGeometry>
        </mxCell>
        <mxCell id="hjcwdcIz2oXyQGafP6FZ-32" style="edgeStyle=orthogonalEdgeStyle;rounded=0;orthogonalLoop=1;jettySize=auto;html=1;" parent="1" source="hjcwdcIz2oXyQGafP6FZ-34" edge="1">
          <mxGeometry relative="1" as="geometry">
            <mxPoint x="1390" y="1500" as="targetPoint" />
            <Array as="points">
              <mxPoint x="637" y="1880" />
              <mxPoint x="1390" y="1880" />
            </Array>
          </mxGeometry>
        </mxCell>
        <mxCell id="hjcwdcIz2oXyQGafP6FZ-33" value="false" style="edgeLabel;html=1;align=center;verticalAlign=middle;resizable=0;points=[];" parent="hjcwdcIz2oXyQGafP6FZ-32" vertex="1" connectable="0">
          <mxGeometry x="-0.2462" y="2" relative="1" as="geometry">
            <mxPoint x="1" as="offset" />
          </mxGeometry>
        </mxCell>
        <mxCell id="hjcwdcIz2oXyQGafP6FZ-34" value="i&amp;lt;currentIndex" style="rhombus;whiteSpace=wrap;html=1;" parent="1" vertex="1">
          <mxGeometry x="597.5" y="1715" width="80" height="80" as="geometry" />
        </mxCell>
        <mxCell id="hjcwdcIz2oXyQGafP6FZ-35" value="" style="edgeStyle=orthogonalEdgeStyle;rounded=0;orthogonalLoop=1;jettySize=auto;html=1;" parent="1" source="hjcwdcIz2oXyQGafP6FZ-36" target="hjcwdcIz2oXyQGafP6FZ-38" edge="1">
          <mxGeometry relative="1" as="geometry" />
        </mxCell>
        <mxCell id="hjcwdcIz2oXyQGafP6FZ-36" value="arr[i]" style="shape=parallelogram;perimeter=parallelogramPerimeter;whiteSpace=wrap;html=1;fixedSize=1;" parent="1" vertex="1">
          <mxGeometry x="737.5" y="1725" width="120" height="60" as="geometry" />
        </mxCell>
        <mxCell id="hjcwdcIz2oXyQGafP6FZ-37" style="edgeStyle=orthogonalEdgeStyle;rounded=0;orthogonalLoop=1;jettySize=auto;html=1;" parent="1" source="hjcwdcIz2oXyQGafP6FZ-38" edge="1">
          <mxGeometry relative="1" as="geometry">
            <mxPoint x="540" y="1755" as="targetPoint" />
            <Array as="points">
              <mxPoint x="998" y="1630" />
              <mxPoint x="540" y="1630" />
            </Array>
          </mxGeometry>
        </mxCell>
        <mxCell id="hjcwdcIz2oXyQGafP6FZ-38" value="i++" style="whiteSpace=wrap;html=1;" parent="1" vertex="1">
          <mxGeometry x="937.5" y="1725" width="120" height="60" as="geometry" />
        </mxCell>
        <mxCell id="hjcwdcIz2oXyQGafP6FZ-39" value="" style="edgeStyle=orthogonalEdgeStyle;rounded=0;orthogonalLoop=1;jettySize=auto;html=1;" parent="1" source="hjcwdcIz2oXyQGafP6FZ-41" target="hjcwdcIz2oXyQGafP6FZ-60" edge="1">
          <mxGeometry relative="1" as="geometry" />
        </mxCell>
        <mxCell id="hjcwdcIz2oXyQGafP6FZ-40" value="false" style="edgeLabel;html=1;align=center;verticalAlign=middle;resizable=0;points=[];" parent="hjcwdcIz2oXyQGafP6FZ-39" vertex="1" connectable="0">
          <mxGeometry x="-0.2893" y="4" relative="1" as="geometry">
            <mxPoint y="-1" as="offset" />
          </mxGeometry>
        </mxCell>
        <mxCell id="hjcwdcIz2oXyQGafP6FZ-41" value="choice==3" style="rhombus;whiteSpace=wrap;html=1;" parent="1" vertex="1">
          <mxGeometry x="308.75" y="2014.91" width="112.5" height="110" as="geometry" />
        </mxCell>
        <mxCell id="hjcwdcIz2oXyQGafP6FZ-42" value="" style="edgeStyle=orthogonalEdgeStyle;rounded=0;orthogonalLoop=1;jettySize=auto;html=1;exitX=1;exitY=0.5;exitDx=0;exitDy=0;" parent="1" source="hjcwdcIz2oXyQGafP6FZ-41" target="hjcwdcIz2oXyQGafP6FZ-47" edge="1">
          <mxGeometry relative="1" as="geometry">
            <mxPoint x="671" y="2054.91" as="sourcePoint" />
          </mxGeometry>
        </mxCell>
        <mxCell id="hjcwdcIz2oXyQGafP6FZ-43" value="" style="edgeStyle=orthogonalEdgeStyle;rounded=0;orthogonalLoop=1;jettySize=auto;html=1;entryX=0;entryY=0.5;entryDx=0;entryDy=0;" parent="1" source="hjcwdcIz2oXyQGafP6FZ-47" target="hjcwdcIz2oXyQGafP6FZ-54" edge="1">
          <mxGeometry relative="1" as="geometry">
            <mxPoint x="657.47" y="2065" as="targetPoint" />
          </mxGeometry>
        </mxCell>
        <mxCell id="hjcwdcIz2oXyQGafP6FZ-44" value="true" style="edgeLabel;html=1;align=center;verticalAlign=middle;resizable=0;points=[];" parent="hjcwdcIz2oXyQGafP6FZ-43" vertex="1" connectable="0">
          <mxGeometry x="-0.1917" y="3" relative="1" as="geometry">
            <mxPoint as="offset" />
          </mxGeometry>
        </mxCell>
        <mxCell id="hjcwdcIz2oXyQGafP6FZ-45" style="edgeStyle=orthogonalEdgeStyle;rounded=0;orthogonalLoop=1;jettySize=auto;html=1;" parent="1" source="hjcwdcIz2oXyQGafP6FZ-47" edge="1">
          <mxGeometry relative="1" as="geometry">
            <mxPoint x="1390" y="1850" as="targetPoint" />
            <Array as="points">
              <mxPoint x="568" y="2200" />
            </Array>
          </mxGeometry>
        </mxCell>
        <mxCell id="hjcwdcIz2oXyQGafP6FZ-46" value="false" style="edgeLabel;html=1;align=center;verticalAlign=middle;resizable=0;points=[];" parent="hjcwdcIz2oXyQGafP6FZ-45" vertex="1" connectable="0">
          <mxGeometry x="-0.1814" y="-4" relative="1" as="geometry">
            <mxPoint as="offset" />
          </mxGeometry>
        </mxCell>
        <mxCell id="hjcwdcIz2oXyQGafP6FZ-47" value="i&amp;lt;currentIndex" style="rhombus;whiteSpace=wrap;html=1;" parent="1" vertex="1">
          <mxGeometry x="525.02" y="2024.9999999999998" width="80" height="80" as="geometry" />
        </mxCell>
        <mxCell id="hjcwdcIz2oXyQGafP6FZ-48" value="" style="edgeStyle=orthogonalEdgeStyle;rounded=0;orthogonalLoop=1;jettySize=auto;html=1;" parent="1" source="hjcwdcIz2oXyQGafP6FZ-49" target="hjcwdcIz2oXyQGafP6FZ-51" edge="1">
          <mxGeometry relative="1" as="geometry" />
        </mxCell>
        <mxCell id="hjcwdcIz2oXyQGafP6FZ-49" value="arr[i]" style="shape=parallelogram;perimeter=parallelogramPerimeter;whiteSpace=wrap;html=1;fixedSize=1;" parent="1" vertex="1">
          <mxGeometry x="910" y="2037.41" width="120" height="55" as="geometry" />
        </mxCell>
        <mxCell id="hjcwdcIz2oXyQGafP6FZ-50" style="edgeStyle=orthogonalEdgeStyle;rounded=0;orthogonalLoop=1;jettySize=auto;html=1;" parent="1" source="hjcwdcIz2oXyQGafP6FZ-51" edge="1">
          <mxGeometry relative="1" as="geometry">
            <mxPoint x="467.52000000000004" y="2065" as="targetPoint" />
            <Array as="points">
              <mxPoint x="1190" y="1940" />
              <mxPoint x="468" y="1940" />
            </Array>
          </mxGeometry>
        </mxCell>
        <mxCell id="hjcwdcIz2oXyQGafP6FZ-51" value="i++&lt;br&gt;sum+=arr[i]" style="whiteSpace=wrap;html=1;" parent="1" vertex="1">
          <mxGeometry x="1121" y="2034.9999999999998" width="120" height="60" as="geometry" />
        </mxCell>
        <mxCell id="hjcwdcIz2oXyQGafP6FZ-52" style="edgeStyle=orthogonalEdgeStyle;rounded=0;orthogonalLoop=1;jettySize=auto;html=1;" parent="1" source="hjcwdcIz2oXyQGafP6FZ-54" edge="1">
          <mxGeometry relative="1" as="geometry">
            <mxPoint x="732.47" y="1940" as="targetPoint" />
          </mxGeometry>
        </mxCell>
        <mxCell id="hjcwdcIz2oXyQGafP6FZ-53" value="false" style="edgeLabel;html=1;align=center;verticalAlign=middle;resizable=0;points=[];" parent="hjcwdcIz2oXyQGafP6FZ-52" vertex="1" connectable="0">
          <mxGeometry x="-0.1016" y="-2" relative="1" as="geometry">
            <mxPoint as="offset" />
          </mxGeometry>
        </mxCell>
        <mxCell id="hjcwdcIz2oXyQGafP6FZ-54" value="arr[i]%2==0" style="rhombus;whiteSpace=wrap;html=1;" parent="1" vertex="1">
          <mxGeometry x="687.47" y="2022.5" width="87.53" height="85" as="geometry" />
        </mxCell>
        <mxCell id="hjcwdcIz2oXyQGafP6FZ-55" style="edgeStyle=orthogonalEdgeStyle;rounded=0;orthogonalLoop=1;jettySize=auto;html=1;entryX=0;entryY=0.5;entryDx=0;entryDy=0;" parent="1" source="hjcwdcIz2oXyQGafP6FZ-54" target="hjcwdcIz2oXyQGafP6FZ-49" edge="1">
          <mxGeometry relative="1" as="geometry">
            <mxPoint x="840" y="2065" as="targetPoint" />
          </mxGeometry>
        </mxCell>
        <mxCell id="hjcwdcIz2oXyQGafP6FZ-56" value="true" style="edgeLabel;html=1;align=center;verticalAlign=middle;resizable=0;points=[];" parent="hjcwdcIz2oXyQGafP6FZ-55" vertex="1" connectable="0">
          <mxGeometry x="-0.0126" y="1" relative="1" as="geometry">
            <mxPoint x="-1" as="offset" />
          </mxGeometry>
        </mxCell>
        <mxCell id="hjcwdcIz2oXyQGafP6FZ-57" style="edgeStyle=orthogonalEdgeStyle;rounded=0;orthogonalLoop=1;jettySize=auto;html=1;entryX=0;entryY=0.5;entryDx=0;entryDy=0;" parent="1" source="hjcwdcIz2oXyQGafP6FZ-60" target="hjcwdcIz2oXyQGafP6FZ-70" edge="1">
          <mxGeometry relative="1" as="geometry">
            <mxPoint x="510" y="2425" as="targetPoint" />
          </mxGeometry>
        </mxCell>
        <mxCell id="hjcwdcIz2oXyQGafP6FZ-58" value="" style="edgeStyle=orthogonalEdgeStyle;rounded=0;orthogonalLoop=1;jettySize=auto;html=1;" parent="1" source="hjcwdcIz2oXyQGafP6FZ-60" target="hjcwdcIz2oXyQGafP6FZ-86" edge="1">
          <mxGeometry relative="1" as="geometry" />
        </mxCell>
        <mxCell id="hjcwdcIz2oXyQGafP6FZ-59" value="false" style="edgeLabel;html=1;align=center;verticalAlign=middle;resizable=0;points=[];" parent="hjcwdcIz2oXyQGafP6FZ-58" vertex="1" connectable="0">
          <mxGeometry x="-0.2015" relative="1" as="geometry">
            <mxPoint as="offset" />
          </mxGeometry>
        </mxCell>
        <mxCell id="hjcwdcIz2oXyQGafP6FZ-60" value="choice==4" style="rhombus;whiteSpace=wrap;html=1;" parent="1" vertex="1">
          <mxGeometry x="308.75" y="2370" width="112.5" height="110" as="geometry" />
        </mxCell>
        <mxCell id="hjcwdcIz2oXyQGafP6FZ-61" value="" style="edgeStyle=orthogonalEdgeStyle;rounded=0;orthogonalLoop=1;jettySize=auto;html=1;entryX=0;entryY=0.5;entryDx=0;entryDy=0;" parent="1" source="hjcwdcIz2oXyQGafP6FZ-64" target="hjcwdcIz2oXyQGafP6FZ-75" edge="1">
          <mxGeometry relative="1" as="geometry">
            <mxPoint x="885.0399999999995" y="2425" as="targetPoint" />
          </mxGeometry>
        </mxCell>
        <mxCell id="hjcwdcIz2oXyQGafP6FZ-62" value="true" style="edgeLabel;html=1;align=center;verticalAlign=middle;resizable=0;points=[];" parent="hjcwdcIz2oXyQGafP6FZ-61" vertex="1" connectable="0">
          <mxGeometry x="-0.2948" y="-5" relative="1" as="geometry">
            <mxPoint x="-1" as="offset" />
          </mxGeometry>
        </mxCell>
        <mxCell id="hjcwdcIz2oXyQGafP6FZ-63" style="edgeStyle=orthogonalEdgeStyle;rounded=0;orthogonalLoop=1;jettySize=auto;html=1;" parent="1" source="hjcwdcIz2oXyQGafP6FZ-64" target="hjcwdcIz2oXyQGafP6FZ-83" edge="1">
          <mxGeometry relative="1" as="geometry">
            <mxPoint x="775.0399999999995" y="2690" as="targetPoint" />
          </mxGeometry>
        </mxCell>
        <mxCell id="hjcwdcIz2oXyQGafP6FZ-64" value="i&amp;lt;currentIndex" style="rhombus;whiteSpace=wrap;html=1;" parent="1" vertex="1">
          <mxGeometry x="735.04" y="2385" width="80" height="80" as="geometry" />
        </mxCell>
        <mxCell id="hjcwdcIz2oXyQGafP6FZ-65" value="" style="edgeStyle=orthogonalEdgeStyle;rounded=0;orthogonalLoop=1;jettySize=auto;html=1;" parent="1" target="hjcwdcIz2oXyQGafP6FZ-68" edge="1">
          <mxGeometry relative="1" as="geometry">
            <mxPoint x="1250" y="2425" as="sourcePoint" />
          </mxGeometry>
        </mxCell>
        <mxCell id="hjcwdcIz2oXyQGafP6FZ-66" value="true" style="edgeLabel;html=1;align=center;verticalAlign=middle;resizable=0;points=[];" parent="hjcwdcIz2oXyQGafP6FZ-65" vertex="1" connectable="0">
          <mxGeometry x="0.2438" y="-1" relative="1" as="geometry">
            <mxPoint as="offset" />
          </mxGeometry>
        </mxCell>
        <mxCell id="hjcwdcIz2oXyQGafP6FZ-67" style="edgeStyle=orthogonalEdgeStyle;rounded=0;orthogonalLoop=1;jettySize=auto;html=1;" parent="1" source="hjcwdcIz2oXyQGafP6FZ-68" edge="1">
          <mxGeometry relative="1" as="geometry">
            <mxPoint x="677.54" y="2425" as="targetPoint" />
            <Array as="points">
              <mxPoint x="1390" y="2300" />
              <mxPoint x="678" y="2300" />
            </Array>
          </mxGeometry>
        </mxCell>
        <mxCell id="hjcwdcIz2oXyQGafP6FZ-68" value="i++" style="whiteSpace=wrap;html=1;" parent="1" vertex="1">
          <mxGeometry x="1350" y="2395" width="120" height="60" as="geometry" />
        </mxCell>
        <mxCell id="hjcwdcIz2oXyQGafP6FZ-69" style="edgeStyle=orthogonalEdgeStyle;rounded=0;orthogonalLoop=1;jettySize=auto;html=1;entryX=0;entryY=0.5;entryDx=0;entryDy=0;" parent="1" source="hjcwdcIz2oXyQGafP6FZ-70" target="hjcwdcIz2oXyQGafP6FZ-64" edge="1">
          <mxGeometry relative="1" as="geometry" />
        </mxCell>
        <mxCell id="hjcwdcIz2oXyQGafP6FZ-70" value="max=arr[]&lt;br&gt;min" style="rounded=1;whiteSpace=wrap;html=1;" parent="1" vertex="1">
          <mxGeometry x="525.02" y="2395" width="120" height="60" as="geometry" />
        </mxCell>
        <mxCell id="hjcwdcIz2oXyQGafP6FZ-71" value="" style="edgeStyle=orthogonalEdgeStyle;rounded=0;orthogonalLoop=1;jettySize=auto;html=1;" parent="1" source="hjcwdcIz2oXyQGafP6FZ-75" target="hjcwdcIz2oXyQGafP6FZ-77" edge="1">
          <mxGeometry relative="1" as="geometry" />
        </mxCell>
        <mxCell id="hjcwdcIz2oXyQGafP6FZ-72" value="true" style="edgeLabel;html=1;align=center;verticalAlign=middle;resizable=0;points=[];" parent="hjcwdcIz2oXyQGafP6FZ-71" vertex="1" connectable="0">
          <mxGeometry x="-0.275" y="4" relative="1" as="geometry">
            <mxPoint as="offset" />
          </mxGeometry>
        </mxCell>
        <mxCell id="hjcwdcIz2oXyQGafP6FZ-73" value="" style="edgeStyle=orthogonalEdgeStyle;rounded=0;orthogonalLoop=1;jettySize=auto;html=1;" parent="1" source="hjcwdcIz2oXyQGafP6FZ-75" target="hjcwdcIz2oXyQGafP6FZ-78" edge="1">
          <mxGeometry relative="1" as="geometry" />
        </mxCell>
        <mxCell id="hjcwdcIz2oXyQGafP6FZ-74" value="false" style="edgeLabel;html=1;align=center;verticalAlign=middle;resizable=0;points=[];" parent="hjcwdcIz2oXyQGafP6FZ-73" vertex="1" connectable="0">
          <mxGeometry x="-0.1944" y="3" relative="1" as="geometry">
            <mxPoint as="offset" />
          </mxGeometry>
        </mxCell>
        <mxCell id="hjcwdcIz2oXyQGafP6FZ-75" value="max&amp;gt;arr[i]" style="rhombus;whiteSpace=wrap;html=1;" parent="1" vertex="1">
          <mxGeometry x="910" y="2385" width="80" height="80" as="geometry" />
        </mxCell>
        <mxCell id="hjcwdcIz2oXyQGafP6FZ-76" value="false" style="edgeStyle=orthogonalEdgeStyle;rounded=0;orthogonalLoop=1;jettySize=auto;html=1;" parent="1" source="hjcwdcIz2oXyQGafP6FZ-77" target="hjcwdcIz2oXyQGafP6FZ-79" edge="1">
          <mxGeometry relative="1" as="geometry" />
        </mxCell>
        <mxCell id="hjcwdcIz2oXyQGafP6FZ-77" value="min&amp;lt;arr[i]" style="rhombus;whiteSpace=wrap;html=1;" parent="1" vertex="1">
          <mxGeometry x="1200" y="2385" width="80" height="80" as="geometry" />
        </mxCell>
        <mxCell id="hjcwdcIz2oXyQGafP6FZ-78" value="max=arr[i]" style="whiteSpace=wrap;html=1;" parent="1" vertex="1">
          <mxGeometry x="890" y="2555" width="120" height="60" as="geometry" />
        </mxCell>
        <mxCell id="hjcwdcIz2oXyQGafP6FZ-79" value="min=arr[i]" style="whiteSpace=wrap;html=1;" parent="1" vertex="1">
          <mxGeometry x="1180" y="2555" width="120" height="60" as="geometry" />
        </mxCell>
        <mxCell id="hjcwdcIz2oXyQGafP6FZ-80" value="" style="endArrow=classic;html=1;rounded=0;exitX=1;exitY=0;exitDx=0;exitDy=0;entryX=0;entryY=1;entryDx=0;entryDy=0;" parent="1" source="hjcwdcIz2oXyQGafP6FZ-78" target="hjcwdcIz2oXyQGafP6FZ-77" edge="1">
          <mxGeometry width="50" height="50" relative="1" as="geometry">
            <mxPoint x="860" y="2520" as="sourcePoint" />
            <mxPoint x="910" y="2470" as="targetPoint" />
          </mxGeometry>
        </mxCell>
        <mxCell id="hjcwdcIz2oXyQGafP6FZ-81" style="edgeStyle=orthogonalEdgeStyle;rounded=0;orthogonalLoop=1;jettySize=auto;html=1;entryX=0.367;entryY=0.979;entryDx=0;entryDy=0;entryPerimeter=0;" parent="1" source="hjcwdcIz2oXyQGafP6FZ-79" target="hjcwdcIz2oXyQGafP6FZ-68" edge="1">
          <mxGeometry relative="1" as="geometry" />
        </mxCell>
        <mxCell id="hjcwdcIz2oXyQGafP6FZ-82" style="edgeStyle=orthogonalEdgeStyle;rounded=0;orthogonalLoop=1;jettySize=auto;html=1;" parent="1" edge="1">
          <mxGeometry relative="1" as="geometry">
            <mxPoint x="1390" y="710" as="targetPoint" />
            <mxPoint x="835.0399999999995" y="2690" as="sourcePoint" />
            <Array as="points">
              <mxPoint x="1880" y="2691" />
              <mxPoint x="1880" y="710" />
            </Array>
          </mxGeometry>
        </mxCell>
        <mxCell id="hjcwdcIz2oXyQGafP6FZ-83" value="max&lt;br&gt;min" style="shape=parallelogram;perimeter=parallelogramPerimeter;whiteSpace=wrap;html=1;fixedSize=1;" parent="1" vertex="1">
          <mxGeometry x="715.0399999999995" y="2660" width="120" height="60" as="geometry" />
        </mxCell>
        <mxCell id="hjcwdcIz2oXyQGafP6FZ-84" value="" style="edgeStyle=orthogonalEdgeStyle;rounded=0;orthogonalLoop=1;jettySize=auto;html=1;" parent="1" source="hjcwdcIz2oXyQGafP6FZ-86" target="hjcwdcIz2oXyQGafP6FZ-88" edge="1">
          <mxGeometry relative="1" as="geometry" />
        </mxCell>
        <mxCell id="hjcwdcIz2oXyQGafP6FZ-85" value="" style="edgeStyle=orthogonalEdgeStyle;rounded=0;orthogonalLoop=1;jettySize=auto;html=1;" parent="1" source="hjcwdcIz2oXyQGafP6FZ-86" target="hjcwdcIz2oXyQGafP6FZ-111" edge="1">
          <mxGeometry relative="1" as="geometry" />
        </mxCell>
        <mxCell id="hjcwdcIz2oXyQGafP6FZ-86" value="choice==7" style="rhombus;whiteSpace=wrap;html=1;" parent="1" vertex="1">
          <mxGeometry x="308.75" y="2930" width="112.5" height="110" as="geometry" />
        </mxCell>
        <mxCell id="hjcwdcIz2oXyQGafP6FZ-87" value="" style="edgeStyle=orthogonalEdgeStyle;rounded=0;orthogonalLoop=1;jettySize=auto;html=1;" parent="1" source="hjcwdcIz2oXyQGafP6FZ-88" target="hjcwdcIz2oXyQGafP6FZ-93" edge="1">
          <mxGeometry relative="1" as="geometry" />
        </mxCell>
        <mxCell id="hjcwdcIz2oXyQGafP6FZ-88" value="addIndex&lt;br&gt;addValue" style="shape=parallelogram;perimeter=parallelogramPerimeter;whiteSpace=wrap;html=1;fixedSize=1;" parent="1" vertex="1">
          <mxGeometry x="497.5" y="2955" width="120" height="60" as="geometry" />
        </mxCell>
        <mxCell id="hjcwdcIz2oXyQGafP6FZ-89" value="" style="edgeStyle=orthogonalEdgeStyle;rounded=0;orthogonalLoop=1;jettySize=auto;html=1;" parent="1" source="hjcwdcIz2oXyQGafP6FZ-93" target="hjcwdcIz2oXyQGafP6FZ-100" edge="1">
          <mxGeometry relative="1" as="geometry" />
        </mxCell>
        <mxCell id="hjcwdcIz2oXyQGafP6FZ-90" value="true" style="edgeLabel;html=1;align=center;verticalAlign=middle;resizable=0;points=[];" parent="hjcwdcIz2oXyQGafP6FZ-89" vertex="1" connectable="0">
          <mxGeometry x="-0.282" y="2" relative="1" as="geometry">
            <mxPoint as="offset" />
          </mxGeometry>
        </mxCell>
        <mxCell id="hjcwdcIz2oXyQGafP6FZ-91" style="edgeStyle=orthogonalEdgeStyle;rounded=0;orthogonalLoop=1;jettySize=auto;html=1;" parent="1" source="hjcwdcIz2oXyQGafP6FZ-93" target="hjcwdcIz2oXyQGafP6FZ-104" edge="1">
          <mxGeometry relative="1" as="geometry" />
        </mxCell>
        <mxCell id="hjcwdcIz2oXyQGafP6FZ-92" value="false" style="edgeLabel;html=1;align=center;verticalAlign=middle;resizable=0;points=[];" parent="hjcwdcIz2oXyQGafP6FZ-91" vertex="1" connectable="0">
          <mxGeometry x="-0.1212" y="5" relative="1" as="geometry">
            <mxPoint y="-1" as="offset" />
          </mxGeometry>
        </mxCell>
        <mxCell id="hjcwdcIz2oXyQGafP6FZ-93" value="currentIndex&amp;gt; index" style="rhombus;whiteSpace=wrap;html=1;" parent="1" vertex="1">
          <mxGeometry x="715.04" y="2923" width="182.5" height="125" as="geometry" />
        </mxCell>
        <mxCell id="hjcwdcIz2oXyQGafP6FZ-94" value="" style="edgeStyle=orthogonalEdgeStyle;rounded=0;orthogonalLoop=1;jettySize=auto;html=1;" parent="1" source="hjcwdcIz2oXyQGafP6FZ-98" target="hjcwdcIz2oXyQGafP6FZ-102" edge="1">
          <mxGeometry relative="1" as="geometry">
            <mxPoint x="1330" y="2985.4999999999995" as="targetPoint" />
          </mxGeometry>
        </mxCell>
        <mxCell id="hjcwdcIz2oXyQGafP6FZ-95" value="true" style="edgeLabel;html=1;align=center;verticalAlign=middle;resizable=0;points=[];" parent="hjcwdcIz2oXyQGafP6FZ-94" vertex="1" connectable="0">
          <mxGeometry x="-0.2948" y="-5" relative="1" as="geometry">
            <mxPoint x="-1" as="offset" />
          </mxGeometry>
        </mxCell>
        <mxCell id="hjcwdcIz2oXyQGafP6FZ-96" style="edgeStyle=orthogonalEdgeStyle;rounded=0;orthogonalLoop=1;jettySize=auto;html=1;" parent="1" source="hjcwdcIz2oXyQGafP6FZ-98" target="hjcwdcIz2oXyQGafP6FZ-106" edge="1">
          <mxGeometry relative="1" as="geometry" />
        </mxCell>
        <mxCell id="hjcwdcIz2oXyQGafP6FZ-97" value="false" style="edgeLabel;html=1;align=center;verticalAlign=middle;resizable=0;points=[];" parent="hjcwdcIz2oXyQGafP6FZ-96" vertex="1" connectable="0">
          <mxGeometry x="-0.1373" relative="1" as="geometry">
            <mxPoint y="1" as="offset" />
          </mxGeometry>
        </mxCell>
        <mxCell id="hjcwdcIz2oXyQGafP6FZ-98" value="i&amp;gt;index" style="rhombus;whiteSpace=wrap;html=1;" parent="1" vertex="1">
          <mxGeometry x="1180" y="2945.5" width="80" height="80" as="geometry" />
        </mxCell>
        <mxCell id="hjcwdcIz2oXyQGafP6FZ-99" style="edgeStyle=orthogonalEdgeStyle;rounded=0;orthogonalLoop=1;jettySize=auto;html=1;entryX=0;entryY=0.5;entryDx=0;entryDy=0;" parent="1" source="hjcwdcIz2oXyQGafP6FZ-100" target="hjcwdcIz2oXyQGafP6FZ-98" edge="1">
          <mxGeometry relative="1" as="geometry" />
        </mxCell>
        <mxCell id="hjcwdcIz2oXyQGafP6FZ-100" value="i=currentIndex" style="whiteSpace=wrap;html=1;" parent="1" vertex="1">
          <mxGeometry x="980" y="2955.5" width="120" height="60" as="geometry" />
        </mxCell>
        <mxCell id="hjcwdcIz2oXyQGafP6FZ-101" style="edgeStyle=orthogonalEdgeStyle;rounded=0;orthogonalLoop=1;jettySize=auto;html=1;" parent="1" source="hjcwdcIz2oXyQGafP6FZ-102" edge="1">
          <mxGeometry relative="1" as="geometry">
            <mxPoint x="1130" y="2986" as="targetPoint" />
            <Array as="points">
              <mxPoint x="1455" y="2880" />
              <mxPoint x="1130" y="2880" />
            </Array>
          </mxGeometry>
        </mxCell>
        <mxCell id="hjcwdcIz2oXyQGafP6FZ-102" value="&#xa;&lt;div style=&quot;color: rgb(212, 212, 212); background-color: rgb(30, 30, 30); font-family: Consolas, &amp;quot;Courier New&amp;quot;, monospace; font-weight: normal; font-size: 14px; line-height: 19px;&quot;&gt;&lt;div&gt;&lt;span style=&quot;color: #d4d4d4;&quot;&gt;&amp;nbsp;&lt;/span&gt;&lt;span style=&quot;color: #c8c8c8;&quot;&gt;arr&lt;/span&gt;&lt;span style=&quot;color: #d4d4d4;&quot;&gt;[&lt;/span&gt;&lt;span style=&quot;color: #c8c8c8;&quot;&gt;i&lt;/span&gt;&lt;span style=&quot;color: #d4d4d4;&quot;&gt;] = &lt;/span&gt;&lt;span style=&quot;color: #c8c8c8;&quot;&gt;arr&lt;/span&gt;&lt;span style=&quot;color: #d4d4d4;&quot;&gt;[&lt;/span&gt;&lt;span style=&quot;color: #c8c8c8;&quot;&gt;i&lt;/span&gt;&lt;span style=&quot;color: #d4d4d4;&quot;&gt; - &lt;/span&gt;&lt;span style=&quot;color: #b5cea8;&quot;&gt;1&lt;/span&gt;&lt;span style=&quot;color: #d4d4d4;&quot;&gt;]; &amp;nbsp; &amp;nbsp;&lt;/span&gt;&lt;/div&gt;&lt;/div&gt;&#xa;&#xa;" style="rounded=1;whiteSpace=wrap;html=1;" parent="1" vertex="1">
          <mxGeometry x="1370" y="2957.12" width="170" height="58.38" as="geometry" />
        </mxCell>
        <mxCell id="hjcwdcIz2oXyQGafP6FZ-103" style="edgeStyle=orthogonalEdgeStyle;rounded=0;orthogonalLoop=1;jettySize=auto;html=1;entryX=0;entryY=0.5;entryDx=0;entryDy=0;" parent="1" source="hjcwdcIz2oXyQGafP6FZ-104" target="hjcwdcIz2oXyQGafP6FZ-106" edge="1">
          <mxGeometry relative="1" as="geometry" />
        </mxCell>
        <mxCell id="hjcwdcIz2oXyQGafP6FZ-104" value="&#xa;&lt;div style=&quot;color: rgb(212, 212, 212); background-color: rgb(30, 30, 30); font-family: Consolas, &amp;quot;Courier New&amp;quot;, monospace; font-weight: normal; font-size: 14px; line-height: 19px;&quot;&gt;&lt;div&gt;&lt;span style=&quot;color: #c8c8c8;&quot;&gt;currentIndex&lt;/span&gt;&lt;span style=&quot;color: #d4d4d4;&quot;&gt;=&lt;/span&gt;&lt;span style=&quot;color: #c8c8c8;&quot;&gt;index&lt;/span&gt;&lt;span style=&quot;color: #d4d4d4;&quot;&gt;+&lt;/span&gt;&lt;span style=&quot;color: #b5cea8;&quot;&gt;1&lt;/span&gt;&lt;/div&gt;&lt;/div&gt;&#xa;&#xa;" style="whiteSpace=wrap;html=1;" parent="1" vertex="1">
          <mxGeometry x="721.29" y="3180" width="170" height="84.5" as="geometry" />
        </mxCell>
        <mxCell id="hjcwdcIz2oXyQGafP6FZ-105" value="" style="edgeStyle=orthogonalEdgeStyle;rounded=0;orthogonalLoop=1;jettySize=auto;html=1;" parent="1" source="hjcwdcIz2oXyQGafP6FZ-106" target="hjcwdcIz2oXyQGafP6FZ-108" edge="1">
          <mxGeometry relative="1" as="geometry" />
        </mxCell>
        <mxCell id="hjcwdcIz2oXyQGafP6FZ-106" value="&#xa;&lt;div style=&quot;color: rgb(212, 212, 212); background-color: rgb(30, 30, 30); font-family: Consolas, &amp;quot;Courier New&amp;quot;, monospace; font-weight: normal; font-size: 14px; line-height: 19px;&quot;&gt;&lt;div&gt;&lt;span style=&quot;color: #d4d4d4;&quot;&gt;&amp;nbsp; &amp;nbsp; &amp;nbsp; &amp;nbsp; &amp;nbsp; &amp;nbsp; &lt;/span&gt;&lt;span style=&quot;color: #c8c8c8;&quot;&gt;arr&lt;/span&gt;&lt;span style=&quot;color: #d4d4d4;&quot;&gt;[&lt;/span&gt;&lt;span style=&quot;color: #c8c8c8;&quot;&gt;index&lt;/span&gt;&lt;span style=&quot;color: #d4d4d4;&quot;&gt;] = &lt;/span&gt;&lt;span style=&quot;color: #c8c8c8;&quot;&gt;addvalue&lt;/span&gt;&lt;span style=&quot;color: #d4d4d4;&quot;&gt;;&lt;/span&gt;&lt;/div&gt;&lt;/div&gt;&#xa;&#xa;" style="whiteSpace=wrap;html=1;" parent="1" vertex="1">
          <mxGeometry x="1160" y="3192.25" width="120" height="60" as="geometry" />
        </mxCell>
        <mxCell id="hjcwdcIz2oXyQGafP6FZ-107" style="edgeStyle=orthogonalEdgeStyle;rounded=0;orthogonalLoop=1;jettySize=auto;html=1;" parent="1" source="hjcwdcIz2oXyQGafP6FZ-108" edge="1">
          <mxGeometry relative="1" as="geometry">
            <mxPoint x="1882.8571428571433" y="2420" as="targetPoint" />
          </mxGeometry>
        </mxCell>
        <mxCell id="hjcwdcIz2oXyQGafP6FZ-108" value="arr[index]" style="shape=parallelogram;perimeter=parallelogramPerimeter;whiteSpace=wrap;html=1;fixedSize=1;" parent="1" vertex="1">
          <mxGeometry x="1360" y="3192.25" width="120" height="60" as="geometry" />
        </mxCell>
        <mxCell id="hjcwdcIz2oXyQGafP6FZ-109" value="" style="edgeStyle=orthogonalEdgeStyle;rounded=0;orthogonalLoop=1;jettySize=auto;html=1;" parent="1" source="hjcwdcIz2oXyQGafP6FZ-111" target="hjcwdcIz2oXyQGafP6FZ-113" edge="1">
          <mxGeometry relative="1" as="geometry" />
        </mxCell>
        <mxCell id="hjcwdcIz2oXyQGafP6FZ-110" value="" style="edgeStyle=orthogonalEdgeStyle;rounded=0;orthogonalLoop=1;jettySize=auto;html=1;" parent="1" source="hjcwdcIz2oXyQGafP6FZ-111" target="hjcwdcIz2oXyQGafP6FZ-146" edge="1">
          <mxGeometry relative="1" as="geometry" />
        </mxCell>
        <mxCell id="hjcwdcIz2oXyQGafP6FZ-111" value="choice==5" style="rhombus;whiteSpace=wrap;html=1;" parent="1" vertex="1">
          <mxGeometry x="308.75" y="3560" width="112.5" height="110" as="geometry" />
        </mxCell>
        <mxCell id="hjcwdcIz2oXyQGafP6FZ-112" value="" style="edgeStyle=orthogonalEdgeStyle;rounded=0;orthogonalLoop=1;jettySize=auto;html=1;" parent="1" source="hjcwdcIz2oXyQGafP6FZ-113" target="hjcwdcIz2oXyQGafP6FZ-118" edge="1">
          <mxGeometry relative="1" as="geometry" />
        </mxCell>
        <mxCell id="hjcwdcIz2oXyQGafP6FZ-113" value="sum=0&lt;br&gt;i=0" style="whiteSpace=wrap;html=1;" parent="1" vertex="1">
          <mxGeometry x="497.5" y="3585" width="120" height="60" as="geometry" />
        </mxCell>
        <mxCell id="hjcwdcIz2oXyQGafP6FZ-114" value="" style="edgeStyle=orthogonalEdgeStyle;rounded=0;orthogonalLoop=1;jettySize=auto;html=1;entryX=0;entryY=0.5;entryDx=0;entryDy=0;" parent="1" source="hjcwdcIz2oXyQGafP6FZ-118" target="hjcwdcIz2oXyQGafP6FZ-129" edge="1">
          <mxGeometry relative="1" as="geometry">
            <mxPoint x="1010.0833333333339" y="3616.333333333334" as="targetPoint" />
          </mxGeometry>
        </mxCell>
        <mxCell id="hjcwdcIz2oXyQGafP6FZ-115" value="true" style="edgeLabel;html=1;align=center;verticalAlign=middle;resizable=0;points=[];" parent="hjcwdcIz2oXyQGafP6FZ-114" vertex="1" connectable="0">
          <mxGeometry x="-0.2293" y="5" relative="1" as="geometry">
            <mxPoint as="offset" />
          </mxGeometry>
        </mxCell>
        <mxCell id="hjcwdcIz2oXyQGafP6FZ-116" value="" style="edgeStyle=orthogonalEdgeStyle;rounded=0;orthogonalLoop=1;jettySize=auto;html=1;" parent="1" source="hjcwdcIz2oXyQGafP6FZ-118" target="hjcwdcIz2oXyQGafP6FZ-143" edge="1">
          <mxGeometry relative="1" as="geometry" />
        </mxCell>
        <mxCell id="hjcwdcIz2oXyQGafP6FZ-117" value="fasle" style="edgeLabel;html=1;align=center;verticalAlign=middle;resizable=0;points=[];" parent="hjcwdcIz2oXyQGafP6FZ-116" vertex="1" connectable="0">
          <mxGeometry x="0.139" y="7" relative="1" as="geometry">
            <mxPoint as="offset" />
          </mxGeometry>
        </mxCell>
        <mxCell id="hjcwdcIz2oXyQGafP6FZ-118" value="i&amp;lt;currentIndex" style="rhombus;whiteSpace=wrap;html=1;" parent="1" vertex="1">
          <mxGeometry x="701.25" y="3552.5" width="192.5" height="125" as="geometry" />
        </mxCell>
        <mxCell id="hjcwdcIz2oXyQGafP6FZ-119" value="" style="edgeStyle=orthogonalEdgeStyle;rounded=0;orthogonalLoop=1;jettySize=auto;html=1;" parent="1" source="hjcwdcIz2oXyQGafP6FZ-123" target="hjcwdcIz2oXyQGafP6FZ-125" edge="1">
          <mxGeometry relative="1" as="geometry" />
        </mxCell>
        <mxCell id="hjcwdcIz2oXyQGafP6FZ-120" value="true" style="edgeLabel;html=1;align=center;verticalAlign=middle;resizable=0;points=[];" parent="hjcwdcIz2oXyQGafP6FZ-119" vertex="1" connectable="0">
          <mxGeometry x="-0.186" y="-2" relative="1" as="geometry">
            <mxPoint x="1" as="offset" />
          </mxGeometry>
        </mxCell>
        <mxCell id="hjcwdcIz2oXyQGafP6FZ-121" style="edgeStyle=orthogonalEdgeStyle;rounded=0;orthogonalLoop=1;jettySize=auto;html=1;" parent="1" source="hjcwdcIz2oXyQGafP6FZ-123" edge="1">
          <mxGeometry relative="1" as="geometry">
            <mxPoint x="1603" y="3446" as="targetPoint" />
          </mxGeometry>
        </mxCell>
        <mxCell id="hjcwdcIz2oXyQGafP6FZ-122" value="false" style="edgeLabel;html=1;align=center;verticalAlign=middle;resizable=0;points=[];" parent="hjcwdcIz2oXyQGafP6FZ-121" vertex="1" connectable="0">
          <mxGeometry x="-0.2291" y="2" relative="1" as="geometry">
            <mxPoint x="1" y="1" as="offset" />
          </mxGeometry>
        </mxCell>
        <mxCell id="hjcwdcIz2oXyQGafP6FZ-123" value="&lt;div style=&quot;color: rgb(212, 212, 212); background-color: rgb(30, 30, 30); font-family: Consolas, &amp;quot;Courier New&amp;quot;, monospace; font-size: 14px; line-height: 19px;&quot;&gt;arr[&lt;span style=&quot;color: #c8c8c8;&quot;&gt;i&lt;/span&gt;] % &lt;span style=&quot;color: #c8c8c8;&quot;&gt;j&lt;/span&gt; == &lt;span style=&quot;color: #b5cea8;&quot;&gt;0&lt;/span&gt; &amp;amp;&amp;amp; &lt;span style=&quot;color: #c8c8c8;&quot;&gt;j&lt;/span&gt; != &lt;span style=&quot;color: #b5cea8;&quot;&gt;1&lt;/span&gt;&lt;/div&gt;" style="rhombus;whiteSpace=wrap;html=1;" parent="1" vertex="1">
          <mxGeometry x="1470" y="3552.5" width="266.25" height="127.5" as="geometry" />
        </mxCell>
        <mxCell id="hjcwdcIz2oXyQGafP6FZ-124" style="edgeStyle=orthogonalEdgeStyle;rounded=0;orthogonalLoop=1;jettySize=auto;html=1;" parent="1" source="hjcwdcIz2oXyQGafP6FZ-125" edge="1">
          <mxGeometry relative="1" as="geometry">
            <mxPoint x="1170" y="3615" as="targetPoint" />
            <Array as="points">
              <mxPoint x="1874" y="3450" />
              <mxPoint x="1170" y="3450" />
            </Array>
          </mxGeometry>
        </mxCell>
        <mxCell id="hjcwdcIz2oXyQGafP6FZ-125" value="count++" style="whiteSpace=wrap;html=1;" parent="1" vertex="1">
          <mxGeometry x="1813.9950000000001" y="3585" width="120" height="60" as="geometry" />
        </mxCell>
        <mxCell id="hjcwdcIz2oXyQGafP6FZ-126" style="edgeStyle=orthogonalEdgeStyle;rounded=0;orthogonalLoop=1;jettySize=auto;html=1;entryX=0;entryY=0.5;entryDx=0;entryDy=0;exitX=1;exitY=0.5;exitDx=0;exitDy=0;" parent="1" source="hjcwdcIz2oXyQGafP6FZ-132" target="hjcwdcIz2oXyQGafP6FZ-123" edge="1">
          <mxGeometry relative="1" as="geometry">
            <mxPoint x="1340" y="3616" as="sourcePoint" />
          </mxGeometry>
        </mxCell>
        <mxCell id="hjcwdcIz2oXyQGafP6FZ-127" value="true" style="edgeLabel;html=1;align=center;verticalAlign=middle;resizable=0;points=[];" parent="hjcwdcIz2oXyQGafP6FZ-126" vertex="1" connectable="0">
          <mxGeometry x="0.0238" y="-7" relative="1" as="geometry">
            <mxPoint as="offset" />
          </mxGeometry>
        </mxCell>
        <mxCell id="hjcwdcIz2oXyQGafP6FZ-128" style="edgeStyle=orthogonalEdgeStyle;rounded=0;orthogonalLoop=1;jettySize=auto;html=1;entryX=0;entryY=0.5;entryDx=0;entryDy=0;" parent="1" source="hjcwdcIz2oXyQGafP6FZ-129" target="hjcwdcIz2oXyQGafP6FZ-132" edge="1">
          <mxGeometry relative="1" as="geometry" />
        </mxCell>
        <mxCell id="hjcwdcIz2oXyQGafP6FZ-129" value="count=0&lt;br&gt;j=0" style="rounded=1;whiteSpace=wrap;html=1;" parent="1" vertex="1">
          <mxGeometry x="990" y="3586.25" width="120" height="60" as="geometry" />
        </mxCell>
        <mxCell id="hjcwdcIz2oXyQGafP6FZ-130" value="" style="edgeStyle=orthogonalEdgeStyle;rounded=0;orthogonalLoop=1;jettySize=auto;html=1;" parent="1" source="hjcwdcIz2oXyQGafP6FZ-132" target="hjcwdcIz2oXyQGafP6FZ-137" edge="1">
          <mxGeometry relative="1" as="geometry" />
        </mxCell>
        <mxCell id="hjcwdcIz2oXyQGafP6FZ-131" value="false" style="edgeLabel;html=1;align=center;verticalAlign=middle;resizable=0;points=[];" parent="hjcwdcIz2oXyQGafP6FZ-130" vertex="1" connectable="0">
          <mxGeometry x="-0.2447" y="-1" relative="1" as="geometry">
            <mxPoint as="offset" />
          </mxGeometry>
        </mxCell>
        <mxCell id="hjcwdcIz2oXyQGafP6FZ-132" value="j&amp;lt;=sqrt(arr[i])" style="rhombus;whiteSpace=wrap;html=1;" parent="1" vertex="1">
          <mxGeometry x="1210" y="3554.38" width="120" height="123.75" as="geometry" />
        </mxCell>
        <mxCell id="hjcwdcIz2oXyQGafP6FZ-133" value="" style="edgeStyle=orthogonalEdgeStyle;rounded=0;orthogonalLoop=1;jettySize=auto;html=1;" parent="1" source="hjcwdcIz2oXyQGafP6FZ-137" target="hjcwdcIz2oXyQGafP6FZ-139" edge="1">
          <mxGeometry relative="1" as="geometry" />
        </mxCell>
        <mxCell id="hjcwdcIz2oXyQGafP6FZ-134" value="true" style="edgeLabel;html=1;align=center;verticalAlign=middle;resizable=0;points=[];" parent="hjcwdcIz2oXyQGafP6FZ-133" vertex="1" connectable="0">
          <mxGeometry x="-0.1028" y="3" relative="1" as="geometry">
            <mxPoint as="offset" />
          </mxGeometry>
        </mxCell>
        <mxCell id="hjcwdcIz2oXyQGafP6FZ-135" style="edgeStyle=orthogonalEdgeStyle;rounded=0;orthogonalLoop=1;jettySize=auto;html=1;" parent="1" source="hjcwdcIz2oXyQGafP6FZ-137" edge="1">
          <mxGeometry relative="1" as="geometry">
            <mxPoint x="670" y="3610" as="targetPoint" />
          </mxGeometry>
        </mxCell>
        <mxCell id="hjcwdcIz2oXyQGafP6FZ-136" value="false" style="edgeLabel;html=1;align=center;verticalAlign=middle;resizable=0;points=[];" parent="hjcwdcIz2oXyQGafP6FZ-135" vertex="1" connectable="0">
          <mxGeometry x="-0.3809" y="2" relative="1" as="geometry">
            <mxPoint as="offset" />
          </mxGeometry>
        </mxCell>
        <mxCell id="hjcwdcIz2oXyQGafP6FZ-137" value="&lt;div style=&quot;color: rgb(212, 212, 212); background-color: rgb(30, 30, 30); font-family: Consolas, &amp;quot;Courier New&amp;quot;, monospace; font-size: 14px; line-height: 19px;&quot;&gt;count == &lt;span style=&quot;color: #b5cea8;&quot;&gt;0&lt;/span&gt; &amp;amp;&amp;amp; &lt;span style=&quot;color: #c8c8c8;&quot;&gt;arr&lt;/span&gt;[&lt;span style=&quot;color: #c8c8c8;&quot;&gt;i&lt;/span&gt;] &amp;gt;= &lt;span style=&quot;color: #b5cea8;&quot;&gt;2&lt;/span&gt;&lt;/div&gt;" style="rhombus;whiteSpace=wrap;html=1;" parent="1" vertex="1">
          <mxGeometry x="1150" y="3760" width="240" height="151.87" as="geometry" />
        </mxCell>
        <mxCell id="hjcwdcIz2oXyQGafP6FZ-138" value="" style="edgeStyle=orthogonalEdgeStyle;rounded=0;orthogonalLoop=1;jettySize=auto;html=1;" parent="1" source="hjcwdcIz2oXyQGafP6FZ-139" target="hjcwdcIz2oXyQGafP6FZ-141" edge="1">
          <mxGeometry relative="1" as="geometry" />
        </mxCell>
        <mxCell id="hjcwdcIz2oXyQGafP6FZ-139" value="sum+=arr[i]" style="whiteSpace=wrap;html=1;" parent="1" vertex="1">
          <mxGeometry x="1520" y="3805.935" width="120" height="60" as="geometry" />
        </mxCell>
        <mxCell id="hjcwdcIz2oXyQGafP6FZ-140" style="edgeStyle=orthogonalEdgeStyle;rounded=0;orthogonalLoop=1;jettySize=auto;html=1;exitX=0.5;exitY=1;exitDx=0;exitDy=0;" parent="1" source="hjcwdcIz2oXyQGafP6FZ-141" edge="1">
          <mxGeometry relative="1" as="geometry">
            <mxPoint x="678" y="3840" as="targetPoint" />
            <mxPoint x="1787.5" y="3925.9349999999995" as="sourcePoint" />
            <Array as="points">
              <mxPoint x="1780" y="3950" />
              <mxPoint x="678" y="3950" />
            </Array>
          </mxGeometry>
        </mxCell>
        <mxCell id="hjcwdcIz2oXyQGafP6FZ-141" value="arr[i]" style="shape=parallelogram;perimeter=parallelogramPerimeter;whiteSpace=wrap;html=1;fixedSize=1;" parent="1" vertex="1">
          <mxGeometry x="1720" y="3805.935" width="120" height="60" as="geometry" />
        </mxCell>
        <mxCell id="hjcwdcIz2oXyQGafP6FZ-142" style="edgeStyle=orthogonalEdgeStyle;rounded=0;orthogonalLoop=1;jettySize=auto;html=1;" parent="1" source="hjcwdcIz2oXyQGafP6FZ-143" edge="1">
          <mxGeometry relative="1" as="geometry">
            <mxPoint x="1880" y="3200" as="targetPoint" />
          </mxGeometry>
        </mxCell>
        <mxCell id="hjcwdcIz2oXyQGafP6FZ-143" value="sum" style="shape=parallelogram;perimeter=parallelogramPerimeter;whiteSpace=wrap;html=1;fixedSize=1;" parent="1" vertex="1">
          <mxGeometry x="737.5" y="3380" width="120" height="60" as="geometry" />
        </mxCell>
        <mxCell id="hjcwdcIz2oXyQGafP6FZ-144" value="" style="edgeStyle=orthogonalEdgeStyle;rounded=0;orthogonalLoop=1;jettySize=auto;html=1;" parent="1" source="hjcwdcIz2oXyQGafP6FZ-146" target="hjcwdcIz2oXyQGafP6FZ-148" edge="1">
          <mxGeometry relative="1" as="geometry" />
        </mxCell>
        <mxCell id="hjcwdcIz2oXyQGafP6FZ-145" value="" style="edgeStyle=orthogonalEdgeStyle;rounded=0;orthogonalLoop=1;jettySize=auto;html=1;" parent="1" source="hjcwdcIz2oXyQGafP6FZ-146" target="hjcwdcIz2oXyQGafP6FZ-164" edge="1">
          <mxGeometry relative="1" as="geometry" />
        </mxCell>
        <mxCell id="hjcwdcIz2oXyQGafP6FZ-146" value="choice==6" style="rhombus;whiteSpace=wrap;html=1;" parent="1" vertex="1">
          <mxGeometry x="308.75" y="4130" width="112.5" height="110" as="geometry" />
        </mxCell>
        <mxCell id="hjcwdcIz2oXyQGafP6FZ-147" value="" style="edgeStyle=orthogonalEdgeStyle;rounded=0;orthogonalLoop=1;jettySize=auto;html=1;" parent="1" source="hjcwdcIz2oXyQGafP6FZ-148" target="hjcwdcIz2oXyQGafP6FZ-150" edge="1">
          <mxGeometry relative="1" as="geometry" />
        </mxCell>
        <mxCell id="hjcwdcIz2oXyQGafP6FZ-148" value="findNumber" style="shape=parallelogram;perimeter=parallelogramPerimeter;whiteSpace=wrap;html=1;fixedSize=1;" parent="1" vertex="1">
          <mxGeometry x="497.5" y="4151.25" width="152.5" height="68.75" as="geometry" />
        </mxCell>
        <mxCell id="hjcwdcIz2oXyQGafP6FZ-149" value="" style="edgeStyle=orthogonalEdgeStyle;rounded=0;orthogonalLoop=1;jettySize=auto;html=1;" parent="1" source="hjcwdcIz2oXyQGafP6FZ-150" target="hjcwdcIz2oXyQGafP6FZ-155" edge="1">
          <mxGeometry relative="1" as="geometry" />
        </mxCell>
        <mxCell id="hjcwdcIz2oXyQGafP6FZ-150" value="count=0&lt;br&gt;i=0" style="whiteSpace=wrap;html=1;" parent="1" vertex="1">
          <mxGeometry x="746.25" y="4155.625" width="120" height="60" as="geometry" />
        </mxCell>
        <mxCell id="hjcwdcIz2oXyQGafP6FZ-151" value="" style="edgeStyle=orthogonalEdgeStyle;rounded=0;orthogonalLoop=1;jettySize=auto;html=1;" parent="1" source="hjcwdcIz2oXyQGafP6FZ-155" target="hjcwdcIz2oXyQGafP6FZ-158" edge="1">
          <mxGeometry relative="1" as="geometry" />
        </mxCell>
        <mxCell id="hjcwdcIz2oXyQGafP6FZ-152" value="true" style="edgeLabel;html=1;align=center;verticalAlign=middle;resizable=0;points=[];" parent="hjcwdcIz2oXyQGafP6FZ-151" vertex="1" connectable="0">
          <mxGeometry x="0.0313" y="1" relative="1" as="geometry">
            <mxPoint as="offset" />
          </mxGeometry>
        </mxCell>
        <mxCell id="hjcwdcIz2oXyQGafP6FZ-153" value="" style="edgeStyle=orthogonalEdgeStyle;rounded=0;orthogonalLoop=1;jettySize=auto;html=1;" parent="1" source="hjcwdcIz2oXyQGafP6FZ-155" target="hjcwdcIz2oXyQGafP6FZ-162" edge="1">
          <mxGeometry relative="1" as="geometry">
            <mxPoint x="1076.875" y="4362.195" as="targetPoint" />
          </mxGeometry>
        </mxCell>
        <mxCell id="hjcwdcIz2oXyQGafP6FZ-154" value="false" style="edgeLabel;html=1;align=center;verticalAlign=middle;resizable=0;points=[];" parent="hjcwdcIz2oXyQGafP6FZ-153" vertex="1" connectable="0">
          <mxGeometry x="-0.093" y="5" relative="1" as="geometry">
            <mxPoint as="offset" />
          </mxGeometry>
        </mxCell>
        <mxCell id="hjcwdcIz2oXyQGafP6FZ-155" value="i&amp;lt;currentNumber" style="rhombus;whiteSpace=wrap;html=1;" parent="1" vertex="1">
          <mxGeometry x="1010" y="4122.34" width="133.75" height="126.57" as="geometry" />
        </mxCell>
        <mxCell id="hjcwdcIz2oXyQGafP6FZ-156" value="" style="edgeStyle=orthogonalEdgeStyle;rounded=0;orthogonalLoop=1;jettySize=auto;html=1;" parent="1" source="hjcwdcIz2oXyQGafP6FZ-158" target="hjcwdcIz2oXyQGafP6FZ-160" edge="1">
          <mxGeometry relative="1" as="geometry" />
        </mxCell>
        <mxCell id="hjcwdcIz2oXyQGafP6FZ-157" value="true" style="edgeLabel;html=1;align=center;verticalAlign=middle;resizable=0;points=[];" parent="hjcwdcIz2oXyQGafP6FZ-156" vertex="1" connectable="0">
          <mxGeometry x="-0.3327" y="3" relative="1" as="geometry">
            <mxPoint as="offset" />
          </mxGeometry>
        </mxCell>
        <mxCell id="hjcwdcIz2oXyQGafP6FZ-158" value="&lt;div style=&quot;color: rgb(212, 212, 212); background-color: rgb(30, 30, 30); font-family: Consolas, &amp;quot;Courier New&amp;quot;, monospace; font-size: 14px; line-height: 19px;&quot;&gt;findNumber == &lt;span style=&quot;color: #c8c8c8;&quot;&gt;arr&lt;/span&gt;[&lt;span style=&quot;color: #c8c8c8;&quot;&gt;i&lt;/span&gt;]&lt;/div&gt;" style="rhombus;whiteSpace=wrap;html=1;" parent="1" vertex="1">
          <mxGeometry x="1300" y="4116.8" width="210" height="137.66" as="geometry" />
        </mxCell>
        <mxCell id="hjcwdcIz2oXyQGafP6FZ-159" style="edgeStyle=orthogonalEdgeStyle;rounded=0;orthogonalLoop=1;jettySize=auto;html=1;" parent="1" source="hjcwdcIz2oXyQGafP6FZ-160" edge="1">
          <mxGeometry relative="1" as="geometry">
            <mxPoint x="950" y="4186" as="targetPoint" />
            <Array as="points">
              <mxPoint x="1695" y="4020" />
              <mxPoint x="950" y="4020" />
            </Array>
          </mxGeometry>
        </mxCell>
        <mxCell id="hjcwdcIz2oXyQGafP6FZ-160" value="count++" style="whiteSpace=wrap;html=1;" parent="1" vertex="1">
          <mxGeometry x="1635" y="4155.63" width="120" height="60" as="geometry" />
        </mxCell>
        <mxCell id="hjcwdcIz2oXyQGafP6FZ-161" style="edgeStyle=orthogonalEdgeStyle;rounded=0;orthogonalLoop=1;jettySize=auto;html=1;" parent="1" source="hjcwdcIz2oXyQGafP6FZ-162" edge="1">
          <mxGeometry relative="1" as="geometry">
            <mxPoint x="1870" y="720" as="targetPoint" />
            <Array as="points">
              <mxPoint x="2150" y="4362" />
              <mxPoint x="2150" y="700" />
              <mxPoint x="1870" y="700" />
            </Array>
          </mxGeometry>
        </mxCell>
        <mxCell id="hjcwdcIz2oXyQGafP6FZ-162" value="count" style="shape=parallelogram;perimeter=parallelogramPerimeter;whiteSpace=wrap;html=1;fixedSize=1;" parent="1" vertex="1">
          <mxGeometry x="1016.875" y="4332.195" width="120" height="60" as="geometry" />
        </mxCell>
        <mxCell id="hjcwdcIz2oXyQGafP6FZ-163" value="" style="edgeStyle=orthogonalEdgeStyle;rounded=0;orthogonalLoop=1;jettySize=auto;html=1;" parent="1" source="hjcwdcIz2oXyQGafP6FZ-164" target="hjcwdcIz2oXyQGafP6FZ-165" edge="1">
          <mxGeometry relative="1" as="geometry" />
        </mxCell>
        <mxCell id="hjcwdcIz2oXyQGafP6FZ-164" value="choice==8" style="rhombus;whiteSpace=wrap;html=1;" parent="1" vertex="1">
          <mxGeometry x="308.75" y="4320" width="112.5" height="110" as="geometry" />
        </mxCell>
        <mxCell id="hjcwdcIz2oXyQGafP6FZ-165" value="end" style="ellipse;whiteSpace=wrap;html=1;" parent="1" vertex="1">
          <mxGeometry x="325" y="4525" width="125" height="95" as="geometry" />
        </mxCell>
      </root>
    </mxGraphModel>
  </diagram>
  <diagram name="BT2" id="x3l7-xIgjaq3GgRtS6CA">
    <mxGraphModel dx="1290" dy="534" grid="1" gridSize="10" guides="1" tooltips="1" connect="1" arrows="1" fold="1" page="1" pageScale="1" pageWidth="827" pageHeight="1169" math="0" shadow="0">
      <root>
        <mxCell id="0" />
        <mxCell id="1" parent="0" />
        <mxCell id="hru1zcuCT2SKiTlvLUI_-1" value="" style="edgeStyle=orthogonalEdgeStyle;rounded=0;orthogonalLoop=1;jettySize=auto;html=1;" edge="1" parent="1" source="hru1zcuCT2SKiTlvLUI_-2" target="hru1zcuCT2SKiTlvLUI_-4">
          <mxGeometry relative="1" as="geometry" />
        </mxCell>
        <mxCell id="hru1zcuCT2SKiTlvLUI_-2" value="start" style="ellipse;whiteSpace=wrap;html=1;" vertex="1" parent="1">
          <mxGeometry x="300" y="400" width="120" height="80" as="geometry" />
        </mxCell>
        <mxCell id="hru1zcuCT2SKiTlvLUI_-3" value="" style="edgeStyle=orthogonalEdgeStyle;rounded=0;orthogonalLoop=1;jettySize=auto;html=1;" edge="1" parent="1" source="hru1zcuCT2SKiTlvLUI_-4" target="hru1zcuCT2SKiTlvLUI_-7">
          <mxGeometry relative="1" as="geometry" />
        </mxCell>
        <mxCell id="hru1zcuCT2SKiTlvLUI_-4" value="output menu" style="shape=parallelogram;perimeter=parallelogramPerimeter;whiteSpace=wrap;html=1;fixedSize=1;" vertex="1" parent="1">
          <mxGeometry x="300" y="510" width="120" height="60" as="geometry" />
        </mxCell>
        <mxCell id="hru1zcuCT2SKiTlvLUI_-5" value="" style="edgeStyle=orthogonalEdgeStyle;rounded=0;orthogonalLoop=1;jettySize=auto;html=1;" edge="1" parent="1" source="hru1zcuCT2SKiTlvLUI_-7" target="hru1zcuCT2SKiTlvLUI_-9">
          <mxGeometry relative="1" as="geometry" />
        </mxCell>
        <mxCell id="hru1zcuCT2SKiTlvLUI_-6" value="" style="edgeStyle=orthogonalEdgeStyle;rounded=0;orthogonalLoop=1;jettySize=auto;html=1;" edge="1" parent="1" source="hru1zcuCT2SKiTlvLUI_-7" target="hru1zcuCT2SKiTlvLUI_-20">
          <mxGeometry relative="1" as="geometry" />
        </mxCell>
        <mxCell id="hru1zcuCT2SKiTlvLUI_-7" value="case 1" style="rhombus;whiteSpace=wrap;html=1;" vertex="1" parent="1">
          <mxGeometry x="320" y="610" width="80" height="80" as="geometry" />
        </mxCell>
        <mxCell id="hru1zcuCT2SKiTlvLUI_-8" value="" style="edgeStyle=orthogonalEdgeStyle;rounded=0;orthogonalLoop=1;jettySize=auto;html=1;" edge="1" parent="1" source="hru1zcuCT2SKiTlvLUI_-9">
          <mxGeometry relative="1" as="geometry">
            <mxPoint x="620" y="650" as="targetPoint" />
          </mxGeometry>
        </mxCell>
        <mxCell id="hru1zcuCT2SKiTlvLUI_-9" value="i&amp;lt;n" style="rhombus;whiteSpace=wrap;html=1;" vertex="1" parent="1">
          <mxGeometry x="480" y="610" width="80" height="80" as="geometry" />
        </mxCell>
        <mxCell id="hru1zcuCT2SKiTlvLUI_-10" value="" style="edgeStyle=orthogonalEdgeStyle;rounded=0;orthogonalLoop=1;jettySize=auto;html=1;" edge="1" parent="1" source="hru1zcuCT2SKiTlvLUI_-11">
          <mxGeometry relative="1" as="geometry">
            <mxPoint x="760" y="650" as="targetPoint" />
          </mxGeometry>
        </mxCell>
        <mxCell id="hru1zcuCT2SKiTlvLUI_-11" value="j&amp;lt;m" style="rhombus;whiteSpace=wrap;html=1;" vertex="1" parent="1">
          <mxGeometry x="620" y="610" width="80" height="80" as="geometry" />
        </mxCell>
        <mxCell id="hru1zcuCT2SKiTlvLUI_-12" value="" style="edgeStyle=orthogonalEdgeStyle;rounded=0;orthogonalLoop=1;jettySize=auto;html=1;" edge="1" parent="1" source="hru1zcuCT2SKiTlvLUI_-13" target="hru1zcuCT2SKiTlvLUI_-17">
          <mxGeometry relative="1" as="geometry" />
        </mxCell>
        <mxCell id="hru1zcuCT2SKiTlvLUI_-13" value="input a[i][j]" style="shape=parallelogram;perimeter=parallelogramPerimeter;whiteSpace=wrap;html=1;fixedSize=1;" vertex="1" parent="1">
          <mxGeometry x="750" y="620" width="120" height="60" as="geometry" />
        </mxCell>
        <mxCell id="hru1zcuCT2SKiTlvLUI_-14" style="edgeStyle=orthogonalEdgeStyle;rounded=0;orthogonalLoop=1;jettySize=auto;html=1;entryX=0.5;entryY=0;entryDx=0;entryDy=0;" edge="1" parent="1" source="hru1zcuCT2SKiTlvLUI_-17" target="hru1zcuCT2SKiTlvLUI_-9">
          <mxGeometry relative="1" as="geometry">
            <Array as="points">
              <mxPoint x="1010" y="540" />
              <mxPoint x="520" y="540" />
            </Array>
          </mxGeometry>
        </mxCell>
        <mxCell id="hru1zcuCT2SKiTlvLUI_-15" style="edgeStyle=orthogonalEdgeStyle;rounded=0;orthogonalLoop=1;jettySize=auto;html=1;entryX=0.5;entryY=1;entryDx=0;entryDy=0;" edge="1" parent="1" source="hru1zcuCT2SKiTlvLUI_-17" target="hru1zcuCT2SKiTlvLUI_-11">
          <mxGeometry relative="1" as="geometry">
            <Array as="points">
              <mxPoint x="1010" y="730" />
              <mxPoint x="660" y="730" />
            </Array>
          </mxGeometry>
        </mxCell>
        <mxCell id="hru1zcuCT2SKiTlvLUI_-16" style="edgeStyle=orthogonalEdgeStyle;rounded=0;orthogonalLoop=1;jettySize=auto;html=1;" edge="1" parent="1" source="hru1zcuCT2SKiTlvLUI_-17">
          <mxGeometry relative="1" as="geometry">
            <mxPoint x="2470" y="870" as="targetPoint" />
          </mxGeometry>
        </mxCell>
        <mxCell id="hru1zcuCT2SKiTlvLUI_-17" value="i++&lt;br&gt;j++" style="whiteSpace=wrap;html=1;" vertex="1" parent="1">
          <mxGeometry x="950" y="620" width="120" height="60" as="geometry" />
        </mxCell>
        <mxCell id="hru1zcuCT2SKiTlvLUI_-18" value="" style="edgeStyle=orthogonalEdgeStyle;rounded=0;orthogonalLoop=1;jettySize=auto;html=1;" edge="1" parent="1" source="hru1zcuCT2SKiTlvLUI_-20" target="hru1zcuCT2SKiTlvLUI_-22">
          <mxGeometry relative="1" as="geometry" />
        </mxCell>
        <mxCell id="hru1zcuCT2SKiTlvLUI_-19" value="" style="edgeStyle=orthogonalEdgeStyle;rounded=0;orthogonalLoop=1;jettySize=auto;html=1;" edge="1" parent="1" source="hru1zcuCT2SKiTlvLUI_-20" target="hru1zcuCT2SKiTlvLUI_-33">
          <mxGeometry relative="1" as="geometry" />
        </mxCell>
        <mxCell id="hru1zcuCT2SKiTlvLUI_-20" value="case 2" style="rhombus;whiteSpace=wrap;html=1;" vertex="1" parent="1">
          <mxGeometry x="320" y="830" width="80" height="80" as="geometry" />
        </mxCell>
        <mxCell id="hru1zcuCT2SKiTlvLUI_-21" value="" style="edgeStyle=orthogonalEdgeStyle;rounded=0;orthogonalLoop=1;jettySize=auto;html=1;" edge="1" parent="1" source="hru1zcuCT2SKiTlvLUI_-22">
          <mxGeometry relative="1" as="geometry">
            <mxPoint x="620" y="870" as="targetPoint" />
          </mxGeometry>
        </mxCell>
        <mxCell id="hru1zcuCT2SKiTlvLUI_-22" value="i&amp;lt;n" style="rhombus;whiteSpace=wrap;html=1;" vertex="1" parent="1">
          <mxGeometry x="480" y="830" width="80" height="80" as="geometry" />
        </mxCell>
        <mxCell id="hru1zcuCT2SKiTlvLUI_-23" value="" style="edgeStyle=orthogonalEdgeStyle;rounded=0;orthogonalLoop=1;jettySize=auto;html=1;" edge="1" parent="1" source="hru1zcuCT2SKiTlvLUI_-24">
          <mxGeometry relative="1" as="geometry">
            <mxPoint x="760" y="870" as="targetPoint" />
          </mxGeometry>
        </mxCell>
        <mxCell id="hru1zcuCT2SKiTlvLUI_-24" value="j&amp;lt;m" style="rhombus;whiteSpace=wrap;html=1;" vertex="1" parent="1">
          <mxGeometry x="620" y="830" width="80" height="80" as="geometry" />
        </mxCell>
        <mxCell id="hru1zcuCT2SKiTlvLUI_-25" value="" style="edgeStyle=orthogonalEdgeStyle;rounded=0;orthogonalLoop=1;jettySize=auto;html=1;" edge="1" parent="1" source="hru1zcuCT2SKiTlvLUI_-26" target="hru1zcuCT2SKiTlvLUI_-30">
          <mxGeometry relative="1" as="geometry" />
        </mxCell>
        <mxCell id="hru1zcuCT2SKiTlvLUI_-26" value="output a[i][j]" style="shape=parallelogram;perimeter=parallelogramPerimeter;whiteSpace=wrap;html=1;fixedSize=1;" vertex="1" parent="1">
          <mxGeometry x="750" y="840" width="120" height="60" as="geometry" />
        </mxCell>
        <mxCell id="hru1zcuCT2SKiTlvLUI_-27" style="edgeStyle=orthogonalEdgeStyle;rounded=0;orthogonalLoop=1;jettySize=auto;html=1;entryX=0.5;entryY=0;entryDx=0;entryDy=0;" edge="1" parent="1" source="hru1zcuCT2SKiTlvLUI_-30" target="hru1zcuCT2SKiTlvLUI_-22">
          <mxGeometry relative="1" as="geometry">
            <Array as="points">
              <mxPoint x="1010" y="760" />
              <mxPoint x="520" y="760" />
            </Array>
          </mxGeometry>
        </mxCell>
        <mxCell id="hru1zcuCT2SKiTlvLUI_-28" style="edgeStyle=orthogonalEdgeStyle;rounded=0;orthogonalLoop=1;jettySize=auto;html=1;entryX=0.5;entryY=1;entryDx=0;entryDy=0;" edge="1" parent="1" source="hru1zcuCT2SKiTlvLUI_-30" target="hru1zcuCT2SKiTlvLUI_-24">
          <mxGeometry relative="1" as="geometry">
            <Array as="points">
              <mxPoint x="1010" y="950" />
              <mxPoint x="660" y="950" />
            </Array>
          </mxGeometry>
        </mxCell>
        <mxCell id="hru1zcuCT2SKiTlvLUI_-29" style="edgeStyle=orthogonalEdgeStyle;rounded=0;orthogonalLoop=1;jettySize=auto;html=1;entryX=0.5;entryY=0;entryDx=0;entryDy=0;" edge="1" parent="1" source="hru1zcuCT2SKiTlvLUI_-30" target="hru1zcuCT2SKiTlvLUI_-155">
          <mxGeometry relative="1" as="geometry" />
        </mxCell>
        <mxCell id="hru1zcuCT2SKiTlvLUI_-30" value="i++&lt;br&gt;j++" style="whiteSpace=wrap;html=1;" vertex="1" parent="1">
          <mxGeometry x="950" y="840" width="120" height="60" as="geometry" />
        </mxCell>
        <mxCell id="hru1zcuCT2SKiTlvLUI_-31" value="" style="edgeStyle=orthogonalEdgeStyle;rounded=0;orthogonalLoop=1;jettySize=auto;html=1;" edge="1" parent="1" source="hru1zcuCT2SKiTlvLUI_-33" target="hru1zcuCT2SKiTlvLUI_-35">
          <mxGeometry relative="1" as="geometry" />
        </mxCell>
        <mxCell id="hru1zcuCT2SKiTlvLUI_-32" value="" style="edgeStyle=orthogonalEdgeStyle;rounded=0;orthogonalLoop=1;jettySize=auto;html=1;" edge="1" parent="1" source="hru1zcuCT2SKiTlvLUI_-33" target="hru1zcuCT2SKiTlvLUI_-66">
          <mxGeometry relative="1" as="geometry" />
        </mxCell>
        <mxCell id="hru1zcuCT2SKiTlvLUI_-33" value="case 3" style="rhombus;whiteSpace=wrap;html=1;" vertex="1" parent="1">
          <mxGeometry x="320" y="1090" width="80" height="80" as="geometry" />
        </mxCell>
        <mxCell id="hru1zcuCT2SKiTlvLUI_-34" value="" style="edgeStyle=orthogonalEdgeStyle;rounded=0;orthogonalLoop=1;jettySize=auto;html=1;" edge="1" parent="1" source="hru1zcuCT2SKiTlvLUI_-35">
          <mxGeometry relative="1" as="geometry">
            <mxPoint x="600" y="1130" as="targetPoint" />
          </mxGeometry>
        </mxCell>
        <mxCell id="hru1zcuCT2SKiTlvLUI_-35" value="i&amp;lt;n" style="rhombus;whiteSpace=wrap;html=1;" vertex="1" parent="1">
          <mxGeometry x="460" y="1090" width="80" height="80" as="geometry" />
        </mxCell>
        <mxCell id="hru1zcuCT2SKiTlvLUI_-36" value="" style="edgeStyle=orthogonalEdgeStyle;rounded=0;orthogonalLoop=1;jettySize=auto;html=1;" edge="1" parent="1" source="hru1zcuCT2SKiTlvLUI_-37" target="hru1zcuCT2SKiTlvLUI_-43">
          <mxGeometry relative="1" as="geometry">
            <mxPoint x="740" y="1130" as="targetPoint" />
          </mxGeometry>
        </mxCell>
        <mxCell id="hru1zcuCT2SKiTlvLUI_-37" value="j&amp;lt;m" style="rhombus;whiteSpace=wrap;html=1;" vertex="1" parent="1">
          <mxGeometry x="600" y="1090" width="80" height="80" as="geometry" />
        </mxCell>
        <mxCell id="hru1zcuCT2SKiTlvLUI_-38" style="edgeStyle=orthogonalEdgeStyle;rounded=0;orthogonalLoop=1;jettySize=auto;html=1;entryX=0.5;entryY=0;entryDx=0;entryDy=0;" edge="1" parent="1" source="hru1zcuCT2SKiTlvLUI_-41" target="hru1zcuCT2SKiTlvLUI_-35">
          <mxGeometry relative="1" as="geometry">
            <Array as="points">
              <mxPoint x="1260" y="1020" />
              <mxPoint x="500" y="1020" />
            </Array>
          </mxGeometry>
        </mxCell>
        <mxCell id="hru1zcuCT2SKiTlvLUI_-39" style="edgeStyle=orthogonalEdgeStyle;rounded=0;orthogonalLoop=1;jettySize=auto;html=1;entryX=0.5;entryY=1;entryDx=0;entryDy=0;" edge="1" parent="1" source="hru1zcuCT2SKiTlvLUI_-41" target="hru1zcuCT2SKiTlvLUI_-37">
          <mxGeometry relative="1" as="geometry">
            <Array as="points">
              <mxPoint x="1260" y="1210" />
              <mxPoint x="640" y="1210" />
            </Array>
          </mxGeometry>
        </mxCell>
        <mxCell id="hru1zcuCT2SKiTlvLUI_-40" value="" style="edgeStyle=orthogonalEdgeStyle;rounded=0;orthogonalLoop=1;jettySize=auto;html=1;" edge="1" parent="1" source="hru1zcuCT2SKiTlvLUI_-41" target="hru1zcuCT2SKiTlvLUI_-49">
          <mxGeometry relative="1" as="geometry" />
        </mxCell>
        <mxCell id="hru1zcuCT2SKiTlvLUI_-41" value="i++&lt;br&gt;j++" style="whiteSpace=wrap;html=1;" vertex="1" parent="1">
          <mxGeometry x="1210" y="1100" width="120" height="60" as="geometry" />
        </mxCell>
        <mxCell id="hru1zcuCT2SKiTlvLUI_-42" value="" style="edgeStyle=orthogonalEdgeStyle;rounded=0;orthogonalLoop=1;jettySize=auto;html=1;" edge="1" parent="1" source="hru1zcuCT2SKiTlvLUI_-43" target="hru1zcuCT2SKiTlvLUI_-47">
          <mxGeometry relative="1" as="geometry" />
        </mxCell>
        <mxCell id="hru1zcuCT2SKiTlvLUI_-43" value="i%2 != 0" style="rhombus;whiteSpace=wrap;html=1;" vertex="1" parent="1">
          <mxGeometry x="750" y="1090" width="80" height="80" as="geometry" />
        </mxCell>
        <mxCell id="hru1zcuCT2SKiTlvLUI_-44" value="" style="edgeStyle=orthogonalEdgeStyle;rounded=0;orthogonalLoop=1;jettySize=auto;html=1;" edge="1" parent="1" source="hru1zcuCT2SKiTlvLUI_-45" target="hru1zcuCT2SKiTlvLUI_-41">
          <mxGeometry relative="1" as="geometry" />
        </mxCell>
        <mxCell id="hru1zcuCT2SKiTlvLUI_-45" value="output a[i][j]" style="shape=parallelogram;perimeter=parallelogramPerimeter;whiteSpace=wrap;html=1;fixedSize=1;" vertex="1" parent="1">
          <mxGeometry x="1030" y="1100" width="120" height="60" as="geometry" />
        </mxCell>
        <mxCell id="hru1zcuCT2SKiTlvLUI_-46" value="" style="edgeStyle=orthogonalEdgeStyle;rounded=0;orthogonalLoop=1;jettySize=auto;html=1;" edge="1" parent="1" source="hru1zcuCT2SKiTlvLUI_-47" target="hru1zcuCT2SKiTlvLUI_-45">
          <mxGeometry relative="1" as="geometry" />
        </mxCell>
        <mxCell id="hru1zcuCT2SKiTlvLUI_-47" value="sum +=a[i][j]" style="rounded=0;whiteSpace=wrap;html=1;" vertex="1" parent="1">
          <mxGeometry x="880" y="1100" width="120" height="60" as="geometry" />
        </mxCell>
        <mxCell id="hru1zcuCT2SKiTlvLUI_-48" style="edgeStyle=orthogonalEdgeStyle;rounded=0;orthogonalLoop=1;jettySize=auto;html=1;" edge="1" parent="1" source="hru1zcuCT2SKiTlvLUI_-49">
          <mxGeometry relative="1" as="geometry">
            <mxPoint x="2480" y="1130" as="targetPoint" />
          </mxGeometry>
        </mxCell>
        <mxCell id="hru1zcuCT2SKiTlvLUI_-49" value="output sum" style="shape=parallelogram;perimeter=parallelogramPerimeter;whiteSpace=wrap;html=1;fixedSize=1;" vertex="1" parent="1">
          <mxGeometry x="1370" y="1100" width="120" height="60" as="geometry" />
        </mxCell>
        <mxCell id="hru1zcuCT2SKiTlvLUI_-50" value="" style="edgeStyle=orthogonalEdgeStyle;rounded=0;orthogonalLoop=1;jettySize=auto;html=1;" edge="1" parent="1" source="hru1zcuCT2SKiTlvLUI_-51">
          <mxGeometry relative="1" as="geometry">
            <mxPoint x="600" y="1380" as="targetPoint" />
          </mxGeometry>
        </mxCell>
        <mxCell id="hru1zcuCT2SKiTlvLUI_-51" value="i&amp;lt;n" style="rhombus;whiteSpace=wrap;html=1;" vertex="1" parent="1">
          <mxGeometry x="460" y="1340" width="80" height="80" as="geometry" />
        </mxCell>
        <mxCell id="hru1zcuCT2SKiTlvLUI_-52" value="" style="edgeStyle=orthogonalEdgeStyle;rounded=0;orthogonalLoop=1;jettySize=auto;html=1;" edge="1" parent="1" source="hru1zcuCT2SKiTlvLUI_-53">
          <mxGeometry relative="1" as="geometry">
            <mxPoint x="750" y="1380" as="targetPoint" />
          </mxGeometry>
        </mxCell>
        <mxCell id="hru1zcuCT2SKiTlvLUI_-53" value="j=1" style="rhombus;whiteSpace=wrap;html=1;" vertex="1" parent="1">
          <mxGeometry x="600" y="1340" width="80" height="80" as="geometry" />
        </mxCell>
        <mxCell id="hru1zcuCT2SKiTlvLUI_-54" style="edgeStyle=orthogonalEdgeStyle;rounded=0;orthogonalLoop=1;jettySize=auto;html=1;entryX=0.5;entryY=0;entryDx=0;entryDy=0;" edge="1" parent="1" source="hru1zcuCT2SKiTlvLUI_-57" target="hru1zcuCT2SKiTlvLUI_-51">
          <mxGeometry relative="1" as="geometry">
            <Array as="points">
              <mxPoint x="1260" y="1270" />
              <mxPoint x="500" y="1270" />
            </Array>
          </mxGeometry>
        </mxCell>
        <mxCell id="hru1zcuCT2SKiTlvLUI_-55" style="edgeStyle=orthogonalEdgeStyle;rounded=0;orthogonalLoop=1;jettySize=auto;html=1;entryX=0.5;entryY=1;entryDx=0;entryDy=0;" edge="1" parent="1" source="hru1zcuCT2SKiTlvLUI_-57" target="hru1zcuCT2SKiTlvLUI_-53">
          <mxGeometry relative="1" as="geometry">
            <Array as="points">
              <mxPoint x="1260" y="1460" />
              <mxPoint x="640" y="1460" />
            </Array>
          </mxGeometry>
        </mxCell>
        <mxCell id="hru1zcuCT2SKiTlvLUI_-56" value="" style="edgeStyle=orthogonalEdgeStyle;rounded=0;orthogonalLoop=1;jettySize=auto;html=1;" edge="1" parent="1" source="hru1zcuCT2SKiTlvLUI_-57" target="hru1zcuCT2SKiTlvLUI_-62">
          <mxGeometry relative="1" as="geometry" />
        </mxCell>
        <mxCell id="hru1zcuCT2SKiTlvLUI_-57" value="i++" style="whiteSpace=wrap;html=1;" vertex="1" parent="1">
          <mxGeometry x="1040" y="1350" width="120" height="60" as="geometry" />
        </mxCell>
        <mxCell id="hru1zcuCT2SKiTlvLUI_-58" value="" style="edgeStyle=orthogonalEdgeStyle;rounded=0;orthogonalLoop=1;jettySize=auto;html=1;" edge="1" parent="1" target="hru1zcuCT2SKiTlvLUI_-60">
          <mxGeometry relative="1" as="geometry">
            <mxPoint x="830" y="1380" as="sourcePoint" />
          </mxGeometry>
        </mxCell>
        <mxCell id="hru1zcuCT2SKiTlvLUI_-59" value="" style="edgeStyle=orthogonalEdgeStyle;rounded=0;orthogonalLoop=1;jettySize=auto;html=1;" edge="1" parent="1" source="hru1zcuCT2SKiTlvLUI_-60">
          <mxGeometry relative="1" as="geometry">
            <mxPoint x="1040" y="1380" as="targetPoint" />
          </mxGeometry>
        </mxCell>
        <mxCell id="hru1zcuCT2SKiTlvLUI_-60" value="sum1 +=a[i][j]" style="rounded=0;whiteSpace=wrap;html=1;" vertex="1" parent="1">
          <mxGeometry x="750" y="1350" width="120" height="60" as="geometry" />
        </mxCell>
        <mxCell id="hru1zcuCT2SKiTlvLUI_-61" style="edgeStyle=orthogonalEdgeStyle;rounded=0;orthogonalLoop=1;jettySize=auto;html=1;" edge="1" parent="1" source="hru1zcuCT2SKiTlvLUI_-62" target="hru1zcuCT2SKiTlvLUI_-155">
          <mxGeometry relative="1" as="geometry" />
        </mxCell>
        <mxCell id="hru1zcuCT2SKiTlvLUI_-62" value="output sum" style="shape=parallelogram;perimeter=parallelogramPerimeter;whiteSpace=wrap;html=1;fixedSize=1;" vertex="1" parent="1">
          <mxGeometry x="1360" y="1270" width="120" height="60" as="geometry" />
        </mxCell>
        <mxCell id="hru1zcuCT2SKiTlvLUI_-63" value="" style="edgeStyle=orthogonalEdgeStyle;rounded=0;orthogonalLoop=1;jettySize=auto;html=1;" edge="1" parent="1" source="hru1zcuCT2SKiTlvLUI_-66" target="hru1zcuCT2SKiTlvLUI_-51">
          <mxGeometry relative="1" as="geometry" />
        </mxCell>
        <mxCell id="hru1zcuCT2SKiTlvLUI_-64" style="edgeStyle=orthogonalEdgeStyle;rounded=0;orthogonalLoop=1;jettySize=auto;html=1;entryX=0;entryY=0.5;entryDx=0;entryDy=0;" edge="1" parent="1" source="hru1zcuCT2SKiTlvLUI_-66" target="hru1zcuCT2SKiTlvLUI_-68">
          <mxGeometry relative="1" as="geometry">
            <mxPoint x="450" y="1540" as="targetPoint" />
            <Array as="points">
              <mxPoint x="360" y="1610" />
            </Array>
          </mxGeometry>
        </mxCell>
        <mxCell id="hru1zcuCT2SKiTlvLUI_-65" style="edgeStyle=orthogonalEdgeStyle;rounded=0;orthogonalLoop=1;jettySize=auto;html=1;entryX=0;entryY=0.5;entryDx=0;entryDy=0;" edge="1" parent="1" source="hru1zcuCT2SKiTlvLUI_-66" target="hru1zcuCT2SKiTlvLUI_-82">
          <mxGeometry relative="1" as="geometry">
            <mxPoint x="300" y="1882.39990234375" as="targetPoint" />
            <Array as="points">
              <mxPoint x="300" y="1380" />
              <mxPoint x="300" y="1860" />
            </Array>
          </mxGeometry>
        </mxCell>
        <mxCell id="hru1zcuCT2SKiTlvLUI_-66" value="case 4" style="rhombus;whiteSpace=wrap;html=1;" vertex="1" parent="1">
          <mxGeometry x="320" y="1340" width="80" height="80" as="geometry" />
        </mxCell>
        <mxCell id="hru1zcuCT2SKiTlvLUI_-67" value="" style="edgeStyle=orthogonalEdgeStyle;rounded=0;orthogonalLoop=1;jettySize=auto;html=1;" edge="1" parent="1" source="hru1zcuCT2SKiTlvLUI_-68">
          <mxGeometry relative="1" as="geometry">
            <mxPoint x="590" y="1610" as="targetPoint" />
          </mxGeometry>
        </mxCell>
        <mxCell id="hru1zcuCT2SKiTlvLUI_-68" value="i&amp;lt;n" style="rhombus;whiteSpace=wrap;html=1;" vertex="1" parent="1">
          <mxGeometry x="450" y="1570" width="80" height="80" as="geometry" />
        </mxCell>
        <mxCell id="hru1zcuCT2SKiTlvLUI_-69" value="" style="edgeStyle=orthogonalEdgeStyle;rounded=0;orthogonalLoop=1;jettySize=auto;html=1;" edge="1" parent="1" source="hru1zcuCT2SKiTlvLUI_-70">
          <mxGeometry relative="1" as="geometry">
            <mxPoint x="740" y="1610" as="targetPoint" />
          </mxGeometry>
        </mxCell>
        <mxCell id="hru1zcuCT2SKiTlvLUI_-70" value="j=m" style="rhombus;whiteSpace=wrap;html=1;" vertex="1" parent="1">
          <mxGeometry x="590" y="1570" width="80" height="80" as="geometry" />
        </mxCell>
        <mxCell id="hru1zcuCT2SKiTlvLUI_-71" style="edgeStyle=orthogonalEdgeStyle;rounded=0;orthogonalLoop=1;jettySize=auto;html=1;entryX=0.5;entryY=0;entryDx=0;entryDy=0;" edge="1" parent="1" source="hru1zcuCT2SKiTlvLUI_-74" target="hru1zcuCT2SKiTlvLUI_-68">
          <mxGeometry relative="1" as="geometry">
            <Array as="points">
              <mxPoint x="1250" y="1500" />
              <mxPoint x="490" y="1500" />
            </Array>
          </mxGeometry>
        </mxCell>
        <mxCell id="hru1zcuCT2SKiTlvLUI_-72" style="edgeStyle=orthogonalEdgeStyle;rounded=0;orthogonalLoop=1;jettySize=auto;html=1;entryX=0.5;entryY=1;entryDx=0;entryDy=0;" edge="1" parent="1" source="hru1zcuCT2SKiTlvLUI_-74" target="hru1zcuCT2SKiTlvLUI_-70">
          <mxGeometry relative="1" as="geometry">
            <Array as="points">
              <mxPoint x="1250" y="1690" />
              <mxPoint x="630" y="1690" />
            </Array>
          </mxGeometry>
        </mxCell>
        <mxCell id="hru1zcuCT2SKiTlvLUI_-73" value="" style="edgeStyle=orthogonalEdgeStyle;rounded=0;orthogonalLoop=1;jettySize=auto;html=1;" edge="1" parent="1" source="hru1zcuCT2SKiTlvLUI_-74" target="hru1zcuCT2SKiTlvLUI_-79">
          <mxGeometry relative="1" as="geometry" />
        </mxCell>
        <mxCell id="hru1zcuCT2SKiTlvLUI_-74" value="i++" style="whiteSpace=wrap;html=1;" vertex="1" parent="1">
          <mxGeometry x="1030" y="1580" width="120" height="60" as="geometry" />
        </mxCell>
        <mxCell id="hru1zcuCT2SKiTlvLUI_-75" value="" style="edgeStyle=orthogonalEdgeStyle;rounded=0;orthogonalLoop=1;jettySize=auto;html=1;" edge="1" parent="1" target="hru1zcuCT2SKiTlvLUI_-77">
          <mxGeometry relative="1" as="geometry">
            <mxPoint x="820" y="1610" as="sourcePoint" />
          </mxGeometry>
        </mxCell>
        <mxCell id="hru1zcuCT2SKiTlvLUI_-76" value="" style="edgeStyle=orthogonalEdgeStyle;rounded=0;orthogonalLoop=1;jettySize=auto;html=1;" edge="1" parent="1" source="hru1zcuCT2SKiTlvLUI_-77">
          <mxGeometry relative="1" as="geometry">
            <mxPoint x="1030" y="1610" as="targetPoint" />
          </mxGeometry>
        </mxCell>
        <mxCell id="hru1zcuCT2SKiTlvLUI_-77" value="sum2 +=a[i][j]" style="rounded=0;whiteSpace=wrap;html=1;" vertex="1" parent="1">
          <mxGeometry x="740" y="1580" width="120" height="60" as="geometry" />
        </mxCell>
        <mxCell id="hru1zcuCT2SKiTlvLUI_-78" style="edgeStyle=orthogonalEdgeStyle;rounded=0;orthogonalLoop=1;jettySize=auto;html=1;entryX=0.5;entryY=1;entryDx=0;entryDy=0;" edge="1" parent="1" source="hru1zcuCT2SKiTlvLUI_-79" target="hru1zcuCT2SKiTlvLUI_-155">
          <mxGeometry relative="1" as="geometry" />
        </mxCell>
        <mxCell id="hru1zcuCT2SKiTlvLUI_-79" value="outpu2 sum" style="shape=parallelogram;perimeter=parallelogramPerimeter;whiteSpace=wrap;html=1;fixedSize=1;" vertex="1" parent="1">
          <mxGeometry x="1350" y="1500" width="120" height="60" as="geometry" />
        </mxCell>
        <mxCell id="hru1zcuCT2SKiTlvLUI_-80" value="" style="edgeStyle=orthogonalEdgeStyle;rounded=0;orthogonalLoop=1;jettySize=auto;html=1;" edge="1" parent="1" source="hru1zcuCT2SKiTlvLUI_-82" target="hru1zcuCT2SKiTlvLUI_-84">
          <mxGeometry relative="1" as="geometry" />
        </mxCell>
        <mxCell id="hru1zcuCT2SKiTlvLUI_-81" style="edgeStyle=orthogonalEdgeStyle;rounded=0;orthogonalLoop=1;jettySize=auto;html=1;entryX=0.5;entryY=0;entryDx=0;entryDy=0;" edge="1" parent="1" source="hru1zcuCT2SKiTlvLUI_-82" target="hru1zcuCT2SKiTlvLUI_-111">
          <mxGeometry relative="1" as="geometry" />
        </mxCell>
        <mxCell id="hru1zcuCT2SKiTlvLUI_-82" value="case 7" style="rhombus;whiteSpace=wrap;html=1;" vertex="1" parent="1">
          <mxGeometry x="330" y="1820" width="80" height="80" as="geometry" />
        </mxCell>
        <mxCell id="hru1zcuCT2SKiTlvLUI_-83" value="" style="edgeStyle=orthogonalEdgeStyle;rounded=0;orthogonalLoop=1;jettySize=auto;html=1;" edge="1" parent="1" source="hru1zcuCT2SKiTlvLUI_-84">
          <mxGeometry relative="1" as="geometry">
            <mxPoint x="590" y="1860" as="targetPoint" />
          </mxGeometry>
        </mxCell>
        <mxCell id="hru1zcuCT2SKiTlvLUI_-84" value="i&amp;lt;n" style="rhombus;whiteSpace=wrap;html=1;" vertex="1" parent="1">
          <mxGeometry x="450" y="1820" width="80" height="80" as="geometry" />
        </mxCell>
        <mxCell id="hru1zcuCT2SKiTlvLUI_-85" value="" style="edgeStyle=orthogonalEdgeStyle;rounded=0;orthogonalLoop=1;jettySize=auto;html=1;" edge="1" parent="1" source="hru1zcuCT2SKiTlvLUI_-86">
          <mxGeometry relative="1" as="geometry">
            <mxPoint x="740" y="1860" as="targetPoint" />
          </mxGeometry>
        </mxCell>
        <mxCell id="hru1zcuCT2SKiTlvLUI_-86" value="j&amp;lt;m" style="rhombus;whiteSpace=wrap;html=1;" vertex="1" parent="1">
          <mxGeometry x="590" y="1820" width="80" height="80" as="geometry" />
        </mxCell>
        <mxCell id="hru1zcuCT2SKiTlvLUI_-87" style="edgeStyle=orthogonalEdgeStyle;rounded=0;orthogonalLoop=1;jettySize=auto;html=1;entryX=0.5;entryY=0;entryDx=0;entryDy=0;" edge="1" parent="1" source="hru1zcuCT2SKiTlvLUI_-90" target="hru1zcuCT2SKiTlvLUI_-84">
          <mxGeometry relative="1" as="geometry">
            <Array as="points">
              <mxPoint x="1250" y="1750" />
              <mxPoint x="490" y="1750" />
            </Array>
          </mxGeometry>
        </mxCell>
        <mxCell id="hru1zcuCT2SKiTlvLUI_-88" style="edgeStyle=orthogonalEdgeStyle;rounded=0;orthogonalLoop=1;jettySize=auto;html=1;entryX=0.5;entryY=1;entryDx=0;entryDy=0;" edge="1" parent="1" source="hru1zcuCT2SKiTlvLUI_-90" target="hru1zcuCT2SKiTlvLUI_-86">
          <mxGeometry relative="1" as="geometry">
            <Array as="points">
              <mxPoint x="1250" y="1940" />
              <mxPoint x="630" y="1940" />
            </Array>
          </mxGeometry>
        </mxCell>
        <mxCell id="hru1zcuCT2SKiTlvLUI_-89" value="" style="edgeStyle=orthogonalEdgeStyle;rounded=0;orthogonalLoop=1;jettySize=auto;html=1;" edge="1" parent="1" source="hru1zcuCT2SKiTlvLUI_-90" target="hru1zcuCT2SKiTlvLUI_-94">
          <mxGeometry relative="1" as="geometry" />
        </mxCell>
        <mxCell id="hru1zcuCT2SKiTlvLUI_-90" value="i++&lt;br&gt;i++" style="whiteSpace=wrap;html=1;" vertex="1" parent="1">
          <mxGeometry x="1030" y="1830" width="120" height="60" as="geometry" />
        </mxCell>
        <mxCell id="hru1zcuCT2SKiTlvLUI_-91" value="" style="edgeStyle=orthogonalEdgeStyle;rounded=0;orthogonalLoop=1;jettySize=auto;html=1;" edge="1" parent="1" target="hru1zcuCT2SKiTlvLUI_-93">
          <mxGeometry relative="1" as="geometry">
            <mxPoint x="820" y="1860" as="sourcePoint" />
          </mxGeometry>
        </mxCell>
        <mxCell id="hru1zcuCT2SKiTlvLUI_-92" value="" style="edgeStyle=orthogonalEdgeStyle;rounded=0;orthogonalLoop=1;jettySize=auto;html=1;" edge="1" parent="1" source="hru1zcuCT2SKiTlvLUI_-93">
          <mxGeometry relative="1" as="geometry">
            <mxPoint x="1030" y="1860" as="targetPoint" />
          </mxGeometry>
        </mxCell>
        <mxCell id="hru1zcuCT2SKiTlvLUI_-93" value="sum +=a[i][j]" style="rounded=0;whiteSpace=wrap;html=1;" vertex="1" parent="1">
          <mxGeometry x="740" y="1830" width="120" height="60" as="geometry" />
        </mxCell>
        <mxCell id="hru1zcuCT2SKiTlvLUI_-94" value="trung binh = sum /(m*n)" style="shape=parallelogram;perimeter=parallelogramPerimeter;whiteSpace=wrap;html=1;fixedSize=1;" vertex="1" parent="1">
          <mxGeometry x="1370" y="1830" width="220" height="60" as="geometry" />
        </mxCell>
        <mxCell id="hru1zcuCT2SKiTlvLUI_-95" value="" style="edgeStyle=orthogonalEdgeStyle;rounded=0;orthogonalLoop=1;jettySize=auto;html=1;" edge="1" parent="1" source="hru1zcuCT2SKiTlvLUI_-96" target="hru1zcuCT2SKiTlvLUI_-107">
          <mxGeometry relative="1" as="geometry" />
        </mxCell>
        <mxCell id="hru1zcuCT2SKiTlvLUI_-96" value="a[i][j] = trung binh" style="rhombus;whiteSpace=wrap;html=1;" vertex="1" parent="1">
          <mxGeometry x="1900" y="1820" width="140" height="80" as="geometry" />
        </mxCell>
        <mxCell id="hru1zcuCT2SKiTlvLUI_-97" value="" style="edgeStyle=orthogonalEdgeStyle;rounded=0;orthogonalLoop=1;jettySize=auto;html=1;" edge="1" parent="1" target="hru1zcuCT2SKiTlvLUI_-99">
          <mxGeometry relative="1" as="geometry">
            <mxPoint x="1575" y="1860" as="sourcePoint" />
          </mxGeometry>
        </mxCell>
        <mxCell id="hru1zcuCT2SKiTlvLUI_-98" value="" style="edgeStyle=orthogonalEdgeStyle;rounded=0;orthogonalLoop=1;jettySize=auto;html=1;" edge="1" parent="1" source="hru1zcuCT2SKiTlvLUI_-99">
          <mxGeometry relative="1" as="geometry">
            <mxPoint x="1755" y="1860" as="targetPoint" />
          </mxGeometry>
        </mxCell>
        <mxCell id="hru1zcuCT2SKiTlvLUI_-99" value="i&amp;lt;n" style="rhombus;whiteSpace=wrap;html=1;" vertex="1" parent="1">
          <mxGeometry x="1615" y="1820" width="80" height="80" as="geometry" />
        </mxCell>
        <mxCell id="hru1zcuCT2SKiTlvLUI_-100" value="" style="edgeStyle=orthogonalEdgeStyle;rounded=0;orthogonalLoop=1;jettySize=auto;html=1;" edge="1" parent="1" source="hru1zcuCT2SKiTlvLUI_-101">
          <mxGeometry relative="1" as="geometry">
            <mxPoint x="1905" y="1860" as="targetPoint" />
          </mxGeometry>
        </mxCell>
        <mxCell id="hru1zcuCT2SKiTlvLUI_-101" value="j&amp;lt;m" style="rhombus;whiteSpace=wrap;html=1;" vertex="1" parent="1">
          <mxGeometry x="1755" y="1820" width="80" height="80" as="geometry" />
        </mxCell>
        <mxCell id="hru1zcuCT2SKiTlvLUI_-102" style="edgeStyle=orthogonalEdgeStyle;rounded=0;orthogonalLoop=1;jettySize=auto;html=1;entryX=0.5;entryY=0;entryDx=0;entryDy=0;" edge="1" parent="1" source="hru1zcuCT2SKiTlvLUI_-105" target="hru1zcuCT2SKiTlvLUI_-99">
          <mxGeometry relative="1" as="geometry">
            <Array as="points">
              <mxPoint x="2330" y="1750" />
              <mxPoint x="1655" y="1750" />
            </Array>
          </mxGeometry>
        </mxCell>
        <mxCell id="hru1zcuCT2SKiTlvLUI_-103" style="edgeStyle=orthogonalEdgeStyle;rounded=0;orthogonalLoop=1;jettySize=auto;html=1;entryX=0.5;entryY=1;entryDx=0;entryDy=0;" edge="1" parent="1" source="hru1zcuCT2SKiTlvLUI_-105" target="hru1zcuCT2SKiTlvLUI_-101">
          <mxGeometry relative="1" as="geometry">
            <Array as="points">
              <mxPoint x="2330" y="1940" />
              <mxPoint x="1795" y="1940" />
            </Array>
          </mxGeometry>
        </mxCell>
        <mxCell id="hru1zcuCT2SKiTlvLUI_-104" style="edgeStyle=orthogonalEdgeStyle;rounded=0;orthogonalLoop=1;jettySize=auto;html=1;" edge="1" parent="1" source="hru1zcuCT2SKiTlvLUI_-105">
          <mxGeometry relative="1" as="geometry">
            <mxPoint x="2480" y="1860" as="targetPoint" />
          </mxGeometry>
        </mxCell>
        <mxCell id="hru1zcuCT2SKiTlvLUI_-105" value="i++&lt;br&gt;i++" style="whiteSpace=wrap;html=1;" vertex="1" parent="1">
          <mxGeometry x="2260" y="1830" width="120" height="60" as="geometry" />
        </mxCell>
        <mxCell id="hru1zcuCT2SKiTlvLUI_-106" value="" style="edgeStyle=orthogonalEdgeStyle;rounded=0;orthogonalLoop=1;jettySize=auto;html=1;" edge="1" parent="1" source="hru1zcuCT2SKiTlvLUI_-107" target="hru1zcuCT2SKiTlvLUI_-105">
          <mxGeometry relative="1" as="geometry" />
        </mxCell>
        <mxCell id="hru1zcuCT2SKiTlvLUI_-107" value="count++" style="rounded=0;whiteSpace=wrap;html=1;" vertex="1" parent="1">
          <mxGeometry x="2080" y="1830" width="120" height="60" as="geometry" />
        </mxCell>
        <mxCell id="hru1zcuCT2SKiTlvLUI_-108" style="edgeStyle=orthogonalEdgeStyle;rounded=0;orthogonalLoop=1;jettySize=auto;html=1;" edge="1" parent="1">
          <mxGeometry relative="1" as="geometry">
            <mxPoint x="2470" y="1530" as="targetPoint" />
            <mxPoint x="2530" y="1830" as="sourcePoint" />
          </mxGeometry>
        </mxCell>
        <mxCell id="hru1zcuCT2SKiTlvLUI_-109" value="" style="edgeStyle=orthogonalEdgeStyle;rounded=0;orthogonalLoop=1;jettySize=auto;html=1;" edge="1" parent="1" source="hru1zcuCT2SKiTlvLUI_-111" target="hru1zcuCT2SKiTlvLUI_-122">
          <mxGeometry relative="1" as="geometry" />
        </mxCell>
        <mxCell id="hru1zcuCT2SKiTlvLUI_-110" value="" style="edgeStyle=orthogonalEdgeStyle;rounded=0;orthogonalLoop=1;jettySize=auto;html=1;" edge="1" parent="1" source="hru1zcuCT2SKiTlvLUI_-111" target="hru1zcuCT2SKiTlvLUI_-135">
          <mxGeometry relative="1" as="geometry" />
        </mxCell>
        <mxCell id="hru1zcuCT2SKiTlvLUI_-111" value="case 6" style="rhombus;whiteSpace=wrap;html=1;" vertex="1" parent="1">
          <mxGeometry x="330" y="2040" width="80" height="80" as="geometry" />
        </mxCell>
        <mxCell id="hru1zcuCT2SKiTlvLUI_-112" value="" style="edgeStyle=orthogonalEdgeStyle;rounded=0;orthogonalLoop=1;jettySize=auto;html=1;" edge="1" parent="1" source="hru1zcuCT2SKiTlvLUI_-113">
          <mxGeometry relative="1" as="geometry">
            <mxPoint x="760" y="2080" as="targetPoint" />
          </mxGeometry>
        </mxCell>
        <mxCell id="hru1zcuCT2SKiTlvLUI_-113" value="i&amp;lt;n" style="rhombus;whiteSpace=wrap;html=1;" vertex="1" parent="1">
          <mxGeometry x="620" y="2040" width="80" height="80" as="geometry" />
        </mxCell>
        <mxCell id="hru1zcuCT2SKiTlvLUI_-114" value="" style="edgeStyle=orthogonalEdgeStyle;rounded=0;orthogonalLoop=1;jettySize=auto;html=1;" edge="1" parent="1" source="hru1zcuCT2SKiTlvLUI_-116" target="hru1zcuCT2SKiTlvLUI_-124">
          <mxGeometry relative="1" as="geometry">
            <mxPoint x="910" y="2080" as="targetPoint" />
          </mxGeometry>
        </mxCell>
        <mxCell id="hru1zcuCT2SKiTlvLUI_-115" style="edgeStyle=orthogonalEdgeStyle;rounded=0;orthogonalLoop=1;jettySize=auto;html=1;entryX=0;entryY=0.5;entryDx=0;entryDy=0;" edge="1" parent="1" source="hru1zcuCT2SKiTlvLUI_-116" target="hru1zcuCT2SKiTlvLUI_-128">
          <mxGeometry relative="1" as="geometry" />
        </mxCell>
        <mxCell id="hru1zcuCT2SKiTlvLUI_-116" value="j=m" style="rhombus;whiteSpace=wrap;html=1;" vertex="1" parent="1">
          <mxGeometry x="760" y="2040" width="80" height="80" as="geometry" />
        </mxCell>
        <mxCell id="hru1zcuCT2SKiTlvLUI_-117" style="edgeStyle=orthogonalEdgeStyle;rounded=0;orthogonalLoop=1;jettySize=auto;html=1;entryX=0.5;entryY=0;entryDx=0;entryDy=0;" edge="1" parent="1" source="hru1zcuCT2SKiTlvLUI_-120" target="hru1zcuCT2SKiTlvLUI_-113">
          <mxGeometry relative="1" as="geometry">
            <Array as="points">
              <mxPoint x="1420" y="1970" />
              <mxPoint x="660" y="1970" />
            </Array>
          </mxGeometry>
        </mxCell>
        <mxCell id="hru1zcuCT2SKiTlvLUI_-118" style="edgeStyle=orthogonalEdgeStyle;rounded=0;orthogonalLoop=1;jettySize=auto;html=1;entryX=0.5;entryY=1;entryDx=0;entryDy=0;" edge="1" parent="1" source="hru1zcuCT2SKiTlvLUI_-120" target="hru1zcuCT2SKiTlvLUI_-116">
          <mxGeometry relative="1" as="geometry">
            <Array as="points">
              <mxPoint x="1420" y="2160" />
              <mxPoint x="800" y="2160" />
            </Array>
          </mxGeometry>
        </mxCell>
        <mxCell id="hru1zcuCT2SKiTlvLUI_-119" value="" style="edgeStyle=orthogonalEdgeStyle;rounded=0;orthogonalLoop=1;jettySize=auto;html=1;" edge="1" parent="1" source="hru1zcuCT2SKiTlvLUI_-120" target="hru1zcuCT2SKiTlvLUI_-132">
          <mxGeometry relative="1" as="geometry" />
        </mxCell>
        <mxCell id="hru1zcuCT2SKiTlvLUI_-120" value="i++" style="whiteSpace=wrap;html=1;" vertex="1" parent="1">
          <mxGeometry x="1370" y="2050" width="120" height="60" as="geometry" />
        </mxCell>
        <mxCell id="hru1zcuCT2SKiTlvLUI_-121" value="" style="edgeStyle=orthogonalEdgeStyle;rounded=0;orthogonalLoop=1;jettySize=auto;html=1;" edge="1" parent="1" source="hru1zcuCT2SKiTlvLUI_-122" target="hru1zcuCT2SKiTlvLUI_-113">
          <mxGeometry relative="1" as="geometry" />
        </mxCell>
        <mxCell id="hru1zcuCT2SKiTlvLUI_-122" value="max = a[0][0]&lt;br&gt;min=[0][0]" style="rounded=0;whiteSpace=wrap;html=1;" vertex="1" parent="1">
          <mxGeometry x="450" y="2050" width="120" height="60" as="geometry" />
        </mxCell>
        <mxCell id="hru1zcuCT2SKiTlvLUI_-123" value="" style="edgeStyle=orthogonalEdgeStyle;rounded=0;orthogonalLoop=1;jettySize=auto;html=1;" edge="1" parent="1" source="hru1zcuCT2SKiTlvLUI_-124" target="hru1zcuCT2SKiTlvLUI_-126">
          <mxGeometry relative="1" as="geometry" />
        </mxCell>
        <mxCell id="hru1zcuCT2SKiTlvLUI_-124" value="max &amp;lt;a[i][j]" style="rhombus;whiteSpace=wrap;html=1;" vertex="1" parent="1">
          <mxGeometry x="910" y="1980" width="80" height="80" as="geometry" />
        </mxCell>
        <mxCell id="hru1zcuCT2SKiTlvLUI_-125" style="edgeStyle=orthogonalEdgeStyle;rounded=0;orthogonalLoop=1;jettySize=auto;html=1;entryX=0;entryY=0.5;entryDx=0;entryDy=0;" edge="1" parent="1" source="hru1zcuCT2SKiTlvLUI_-126" target="hru1zcuCT2SKiTlvLUI_-120">
          <mxGeometry relative="1" as="geometry" />
        </mxCell>
        <mxCell id="hru1zcuCT2SKiTlvLUI_-126" value="max = a[i][j]" style="whiteSpace=wrap;html=1;" vertex="1" parent="1">
          <mxGeometry x="1050" y="1990" width="120" height="60" as="geometry" />
        </mxCell>
        <mxCell id="hru1zcuCT2SKiTlvLUI_-127" value="" style="edgeStyle=orthogonalEdgeStyle;rounded=0;orthogonalLoop=1;jettySize=auto;html=1;" edge="1" parent="1" source="hru1zcuCT2SKiTlvLUI_-128" target="hru1zcuCT2SKiTlvLUI_-130">
          <mxGeometry relative="1" as="geometry" />
        </mxCell>
        <mxCell id="hru1zcuCT2SKiTlvLUI_-128" value="min &amp;gt;a[i][j]" style="rhombus;whiteSpace=wrap;html=1;" vertex="1" parent="1">
          <mxGeometry x="910" y="2070" width="80" height="80" as="geometry" />
        </mxCell>
        <mxCell id="hru1zcuCT2SKiTlvLUI_-129" style="edgeStyle=orthogonalEdgeStyle;rounded=0;orthogonalLoop=1;jettySize=auto;html=1;entryX=0;entryY=0.5;entryDx=0;entryDy=0;" edge="1" parent="1" source="hru1zcuCT2SKiTlvLUI_-130" target="hru1zcuCT2SKiTlvLUI_-120">
          <mxGeometry relative="1" as="geometry" />
        </mxCell>
        <mxCell id="hru1zcuCT2SKiTlvLUI_-130" value="min = a[i][j]" style="whiteSpace=wrap;html=1;" vertex="1" parent="1">
          <mxGeometry x="1050" y="2080" width="120" height="60" as="geometry" />
        </mxCell>
        <mxCell id="hru1zcuCT2SKiTlvLUI_-131" style="edgeStyle=orthogonalEdgeStyle;rounded=0;orthogonalLoop=1;jettySize=auto;html=1;entryX=0.5;entryY=1;entryDx=0;entryDy=0;" edge="1" parent="1" source="hru1zcuCT2SKiTlvLUI_-132">
          <mxGeometry relative="1" as="geometry">
            <mxPoint x="2530" y="1890" as="targetPoint" />
          </mxGeometry>
        </mxCell>
        <mxCell id="hru1zcuCT2SKiTlvLUI_-132" value="output max , min" style="shape=parallelogram;perimeter=parallelogramPerimeter;whiteSpace=wrap;html=1;fixedSize=1;" vertex="1" parent="1">
          <mxGeometry x="1570" y="2050" width="120" height="60" as="geometry" />
        </mxCell>
        <mxCell id="hru1zcuCT2SKiTlvLUI_-133" value="" style="edgeStyle=orthogonalEdgeStyle;rounded=0;orthogonalLoop=1;jettySize=auto;html=1;" edge="1" parent="1" source="hru1zcuCT2SKiTlvLUI_-135" target="hru1zcuCT2SKiTlvLUI_-137">
          <mxGeometry relative="1" as="geometry" />
        </mxCell>
        <mxCell id="hru1zcuCT2SKiTlvLUI_-134" value="" style="edgeStyle=orthogonalEdgeStyle;rounded=0;orthogonalLoop=1;jettySize=auto;html=1;" edge="1" parent="1" source="hru1zcuCT2SKiTlvLUI_-135" target="hru1zcuCT2SKiTlvLUI_-153">
          <mxGeometry relative="1" as="geometry" />
        </mxCell>
        <mxCell id="hru1zcuCT2SKiTlvLUI_-135" value="case 8" style="rhombus;whiteSpace=wrap;html=1;" vertex="1" parent="1">
          <mxGeometry x="330" y="2290" width="80" height="80" as="geometry" />
        </mxCell>
        <mxCell id="hru1zcuCT2SKiTlvLUI_-136" value="" style="edgeStyle=orthogonalEdgeStyle;rounded=0;orthogonalLoop=1;jettySize=auto;html=1;" edge="1" parent="1" source="hru1zcuCT2SKiTlvLUI_-137">
          <mxGeometry relative="1" as="geometry">
            <mxPoint x="590" y="2330" as="targetPoint" />
          </mxGeometry>
        </mxCell>
        <mxCell id="hru1zcuCT2SKiTlvLUI_-137" value="i&amp;lt;n" style="rhombus;whiteSpace=wrap;html=1;" vertex="1" parent="1">
          <mxGeometry x="450" y="2290" width="80" height="80" as="geometry" />
        </mxCell>
        <mxCell id="hru1zcuCT2SKiTlvLUI_-138" value="" style="edgeStyle=orthogonalEdgeStyle;rounded=0;orthogonalLoop=1;jettySize=auto;html=1;" edge="1" parent="1" source="hru1zcuCT2SKiTlvLUI_-139">
          <mxGeometry relative="1" as="geometry">
            <mxPoint x="740" y="2330" as="targetPoint" />
          </mxGeometry>
        </mxCell>
        <mxCell id="hru1zcuCT2SKiTlvLUI_-139" value="j=m" style="rhombus;whiteSpace=wrap;html=1;" vertex="1" parent="1">
          <mxGeometry x="590" y="2290" width="80" height="80" as="geometry" />
        </mxCell>
        <mxCell id="hru1zcuCT2SKiTlvLUI_-140" style="edgeStyle=orthogonalEdgeStyle;rounded=0;orthogonalLoop=1;jettySize=auto;html=1;entryX=0.5;entryY=0;entryDx=0;entryDy=0;exitX=0.5;exitY=0;exitDx=0;exitDy=0;" edge="1" parent="1" source="hru1zcuCT2SKiTlvLUI_-149" target="hru1zcuCT2SKiTlvLUI_-137">
          <mxGeometry relative="1" as="geometry">
            <Array as="points">
              <mxPoint x="1300" y="2220" />
              <mxPoint x="490" y="2220" />
            </Array>
            <mxPoint x="1250" y="2330" as="sourcePoint" />
          </mxGeometry>
        </mxCell>
        <mxCell id="hru1zcuCT2SKiTlvLUI_-141" style="edgeStyle=orthogonalEdgeStyle;rounded=0;orthogonalLoop=1;jettySize=auto;html=1;entryX=0.5;entryY=1;entryDx=0;entryDy=0;" edge="1" parent="1" target="hru1zcuCT2SKiTlvLUI_-139">
          <mxGeometry relative="1" as="geometry">
            <Array as="points">
              <mxPoint x="990" y="2330" />
              <mxPoint x="990" y="2410" />
              <mxPoint x="630" y="2410" />
            </Array>
            <mxPoint x="990" y="2370" as="sourcePoint" />
          </mxGeometry>
        </mxCell>
        <mxCell id="hru1zcuCT2SKiTlvLUI_-142" value="" style="edgeStyle=orthogonalEdgeStyle;rounded=0;orthogonalLoop=1;jettySize=auto;html=1;" edge="1" parent="1" source="hru1zcuCT2SKiTlvLUI_-143" target="hru1zcuCT2SKiTlvLUI_-145">
          <mxGeometry relative="1" as="geometry" />
        </mxCell>
        <mxCell id="hru1zcuCT2SKiTlvLUI_-143" value="sum += a[i][j]" style="rounded=0;whiteSpace=wrap;html=1;" vertex="1" parent="1">
          <mxGeometry x="740" y="2300" width="120" height="60" as="geometry" />
        </mxCell>
        <mxCell id="hru1zcuCT2SKiTlvLUI_-144" value="" style="edgeStyle=orthogonalEdgeStyle;rounded=0;orthogonalLoop=1;jettySize=auto;html=1;" edge="1" parent="1" source="hru1zcuCT2SKiTlvLUI_-145" target="hru1zcuCT2SKiTlvLUI_-147">
          <mxGeometry relative="1" as="geometry" />
        </mxCell>
        <mxCell id="hru1zcuCT2SKiTlvLUI_-145" value="j++" style="whiteSpace=wrap;html=1;rounded=0;" vertex="1" parent="1">
          <mxGeometry x="940" y="2300" width="120" height="60" as="geometry" />
        </mxCell>
        <mxCell id="hru1zcuCT2SKiTlvLUI_-146" value="" style="edgeStyle=orthogonalEdgeStyle;rounded=0;orthogonalLoop=1;jettySize=auto;html=1;" edge="1" parent="1" source="hru1zcuCT2SKiTlvLUI_-147" target="hru1zcuCT2SKiTlvLUI_-149">
          <mxGeometry relative="1" as="geometry" />
        </mxCell>
        <mxCell id="hru1zcuCT2SKiTlvLUI_-147" value="max &amp;lt; sum" style="rhombus;whiteSpace=wrap;html=1;" vertex="1" parent="1">
          <mxGeometry x="1100" y="2290" width="80" height="80" as="geometry" />
        </mxCell>
        <mxCell id="hru1zcuCT2SKiTlvLUI_-148" value="" style="edgeStyle=orthogonalEdgeStyle;rounded=0;orthogonalLoop=1;jettySize=auto;html=1;" edge="1" parent="1" source="hru1zcuCT2SKiTlvLUI_-149" target="hru1zcuCT2SKiTlvLUI_-151">
          <mxGeometry relative="1" as="geometry" />
        </mxCell>
        <mxCell id="hru1zcuCT2SKiTlvLUI_-149" value="max =sum&lt;br&gt;temp = i&lt;br&gt;sum = 0&lt;br&gt;i++" style="whiteSpace=wrap;html=1;" vertex="1" parent="1">
          <mxGeometry x="1240" y="2300" width="190" height="100" as="geometry" />
        </mxCell>
        <mxCell id="hru1zcuCT2SKiTlvLUI_-150" style="edgeStyle=orthogonalEdgeStyle;rounded=0;orthogonalLoop=1;jettySize=auto;html=1;" edge="1" parent="1" source="hru1zcuCT2SKiTlvLUI_-151">
          <mxGeometry relative="1" as="geometry">
            <mxPoint x="2530" y="2070" as="targetPoint" />
          </mxGeometry>
        </mxCell>
        <mxCell id="hru1zcuCT2SKiTlvLUI_-151" value="output temp" style="shape=parallelogram;perimeter=parallelogramPerimeter;whiteSpace=wrap;html=1;fixedSize=1;" vertex="1" parent="1">
          <mxGeometry x="1545" y="2320" width="120" height="60" as="geometry" />
        </mxCell>
        <mxCell id="hru1zcuCT2SKiTlvLUI_-152" value="" style="edgeStyle=orthogonalEdgeStyle;rounded=0;orthogonalLoop=1;jettySize=auto;html=1;" edge="1" parent="1" source="hru1zcuCT2SKiTlvLUI_-153" target="hru1zcuCT2SKiTlvLUI_-154">
          <mxGeometry relative="1" as="geometry" />
        </mxCell>
        <mxCell id="hru1zcuCT2SKiTlvLUI_-153" value="case 9" style="rhombus;whiteSpace=wrap;html=1;" vertex="1" parent="1">
          <mxGeometry x="330" y="2470" width="80" height="80" as="geometry" />
        </mxCell>
        <mxCell id="hru1zcuCT2SKiTlvLUI_-154" value="end" style="shape=parallelogram;perimeter=parallelogramPerimeter;whiteSpace=wrap;html=1;fixedSize=1;" vertex="1" parent="1">
          <mxGeometry x="470" y="2480" width="120" height="60" as="geometry" />
        </mxCell>
        <mxCell id="hru1zcuCT2SKiTlvLUI_-155" value="end" style="ellipse;whiteSpace=wrap;html=1;" vertex="1" parent="1">
          <mxGeometry x="2415" y="1220" width="120" height="80" as="geometry" />
        </mxCell>
      </root>
    </mxGraphModel>
  </diagram>
</mxfile>
